<mxfile host="app.diagrams.net" agent="Mozilla/5.0 (Windows NT 10.0; Win64; x64) AppleWebKit/537.36 (KHTML, like Gecko) Chrome/133.0.0.0 Safari/537.36 OPR/118.0.0.0" version="27.0.6">
  <diagram name="PÃ¡gina-1" id="OPmvR_xNg3Nn3lYLA73i">
    <mxGraphModel grid="1" page="1" gridSize="5" guides="1" tooltips="1" connect="1" arrows="1" fold="1" pageScale="1" pageWidth="2500" pageHeight="2500" math="0" shadow="0">
      <root>
        <mxCell id="0" />
        <mxCell id="1" parent="0" />
        <mxCell id="RaSThRchthCUQDR3iEfn-26" value="" style="rounded=0;whiteSpace=wrap;html=1;dashed=1;fillColor=none;" vertex="1" parent="1">
          <mxGeometry x="380" y="200" width="660" height="260" as="geometry" />
        </mxCell>
        <mxCell id="6sdn03XjU-XbY_COcO21-106" value="" style="rounded=0;whiteSpace=wrap;html=1;dashed=1;fillColor=none;" vertex="1" parent="1">
          <mxGeometry x="550" y="2361.12" width="490" height="320" as="geometry" />
        </mxCell>
        <mxCell id="6sdn03XjU-XbY_COcO21-37" value="" style="rounded=0;whiteSpace=wrap;html=1;dashed=1;fillColor=none;" vertex="1" parent="1">
          <mxGeometry x="550" y="1961.12" width="490" height="360" as="geometry" />
        </mxCell>
        <mxCell id="3lKRfwnc0ouoPAwV5v7Q-179" value="" style="rounded=0;whiteSpace=wrap;html=1;dashed=1;fillColor=none;" vertex="1" parent="1">
          <mxGeometry x="380" y="1380" width="660" height="180" as="geometry" />
        </mxCell>
        <mxCell id="3lKRfwnc0ouoPAwV5v7Q-35" value="" style="rounded=0;whiteSpace=wrap;html=1;dashed=1;fillColor=none;" vertex="1" parent="1">
          <mxGeometry x="380" y="500" width="660" height="180" as="geometry" />
        </mxCell>
        <mxCell id="3lKRfwnc0ouoPAwV5v7Q-2" value="CKT.&lt;br&gt;PROT.&lt;br&gt;ESD" style="rounded=0;whiteSpace=wrap;html=1;" vertex="1" parent="1">
          <mxGeometry x="500" y="560" width="80" height="80" as="geometry" />
        </mxCell>
        <mxCell id="3lKRfwnc0ouoPAwV5v7Q-4" value="" style="verticalLabelPosition=bottom;shadow=0;dashed=0;align=center;html=1;verticalAlign=top;shape=mxgraph.electrical.logic_gates.buffer2;" vertex="1" parent="1">
          <mxGeometry x="720" y="570" width="100" height="60" as="geometry" />
        </mxCell>
        <mxCell id="3lKRfwnc0ouoPAwV5v7Q-10" style="edgeStyle=orthogonalEdgeStyle;rounded=0;orthogonalLoop=1;jettySize=auto;html=1;exitX=1;exitY=0.5;exitDx=0;exitDy=0;exitPerimeter=0;entryX=0;entryY=0.5;entryDx=0;entryDy=0;endArrow=none;startFill=0;" edge="1" parent="1" source="3lKRfwnc0ouoPAwV5v7Q-5" target="3lKRfwnc0ouoPAwV5v7Q-4">
          <mxGeometry relative="1" as="geometry" />
        </mxCell>
        <mxCell id="3lKRfwnc0ouoPAwV5v7Q-27" style="edgeStyle=orthogonalEdgeStyle;rounded=0;orthogonalLoop=1;jettySize=auto;html=1;exitX=1;exitY=0.5;exitDx=0;exitDy=0;exitPerimeter=0;entryX=0.202;entryY=0.495;entryDx=0;entryDy=0;entryPerimeter=0;" edge="1" parent="1" source="3lKRfwnc0ouoPAwV5v7Q-5" target="3lKRfwnc0ouoPAwV5v7Q-4">
          <mxGeometry relative="1" as="geometry">
            <mxPoint x="720" y="600.1428571428571" as="targetPoint" />
          </mxGeometry>
        </mxCell>
        <mxCell id="3lKRfwnc0ouoPAwV5v7Q-5" value="" style="verticalLabelPosition=bottom;shadow=0;dashed=0;align=center;html=1;verticalAlign=top;shape=mxgraph.electrical.logic_gates.lowpass_filter;" vertex="1" parent="1">
          <mxGeometry x="620" y="560" width="80" height="80" as="geometry" />
        </mxCell>
        <mxCell id="3lKRfwnc0ouoPAwV5v7Q-11" value="Filtro&lt;br&gt;HF" style="text;html=1;align=center;verticalAlign=middle;resizable=0;points=[];autosize=1;strokeColor=none;fillColor=none;" vertex="1" parent="1">
          <mxGeometry x="635" y="523" width="50" height="45" as="geometry" />
        </mxCell>
        <mxCell id="3lKRfwnc0ouoPAwV5v7Q-12" value="" style="verticalLabelPosition=bottom;shadow=0;dashed=0;align=center;html=1;verticalAlign=top;shape=mxgraph.electrical.logic_gates.lowpass_filter;" vertex="1" parent="1">
          <mxGeometry x="920" y="560" width="80" height="80" as="geometry" />
        </mxCell>
        <mxCell id="3lKRfwnc0ouoPAwV5v7Q-14" value="Filtro&lt;br&gt;Antialising" style="text;html=1;align=center;verticalAlign=middle;resizable=0;points=[];autosize=1;strokeColor=none;fillColor=none;" vertex="1" parent="1">
          <mxGeometry x="920" y="520" width="80" height="40" as="geometry" />
        </mxCell>
        <mxCell id="3lKRfwnc0ouoPAwV5v7Q-18" value="" style="verticalLabelPosition=bottom;shadow=0;dashed=0;align=center;html=1;verticalAlign=top;shape=mxgraph.electrical.abstract.summation_point;" vertex="1" parent="1">
          <mxGeometry x="840" y="580" width="40" height="40" as="geometry" />
        </mxCell>
        <mxCell id="3lKRfwnc0ouoPAwV5v7Q-20" value="&lt;font style=&quot;font-size: 12px;&quot;&gt;&lt;b&gt;V&lt;sub style=&quot;&quot;&gt;OFFSET&lt;/sub&gt;&lt;/b&gt;&lt;/font&gt;" style="verticalLabelPosition=top;verticalAlign=bottom;shape=mxgraph.electrical.signal_sources.vdd;shadow=0;dashed=0;align=center;strokeWidth=1;fontSize=24;html=1;flipV=1;" vertex="1" parent="1">
          <mxGeometry x="837.5" y="540" width="45" height="20" as="geometry" />
        </mxCell>
        <mxCell id="3lKRfwnc0ouoPAwV5v7Q-22" style="edgeStyle=orthogonalEdgeStyle;rounded=0;orthogonalLoop=1;jettySize=auto;html=1;exitX=0.5;exitY=0;exitDx=0;exitDy=0;exitPerimeter=0;entryX=0.5;entryY=0;entryDx=0;entryDy=0;entryPerimeter=0;" edge="1" parent="1" source="3lKRfwnc0ouoPAwV5v7Q-20" target="3lKRfwnc0ouoPAwV5v7Q-18">
          <mxGeometry relative="1" as="geometry" />
        </mxCell>
        <mxCell id="3lKRfwnc0ouoPAwV5v7Q-23" style="edgeStyle=orthogonalEdgeStyle;rounded=0;orthogonalLoop=1;jettySize=auto;html=1;exitX=1;exitY=0.5;exitDx=0;exitDy=0;entryX=0;entryY=0.5;entryDx=0;entryDy=0;entryPerimeter=0;" edge="1" parent="1" source="3lKRfwnc0ouoPAwV5v7Q-4" target="3lKRfwnc0ouoPAwV5v7Q-18">
          <mxGeometry relative="1" as="geometry" />
        </mxCell>
        <mxCell id="3lKRfwnc0ouoPAwV5v7Q-24" style="edgeStyle=orthogonalEdgeStyle;rounded=0;orthogonalLoop=1;jettySize=auto;html=1;exitX=1;exitY=0.5;exitDx=0;exitDy=0;exitPerimeter=0;entryX=0;entryY=0.5;entryDx=0;entryDy=0;entryPerimeter=0;" edge="1" parent="1" source="3lKRfwnc0ouoPAwV5v7Q-18" target="3lKRfwnc0ouoPAwV5v7Q-12">
          <mxGeometry relative="1" as="geometry" />
        </mxCell>
        <mxCell id="3lKRfwnc0ouoPAwV5v7Q-28" value="Atenuador" style="text;html=1;align=center;verticalAlign=middle;resizable=0;points=[];autosize=1;strokeColor=none;fillColor=none;" vertex="1" parent="1">
          <mxGeometry x="730" y="530" width="80" height="30" as="geometry" />
        </mxCell>
        <mxCell id="3lKRfwnc0ouoPAwV5v7Q-32" style="edgeStyle=orthogonalEdgeStyle;rounded=0;orthogonalLoop=1;jettySize=auto;html=1;exitX=1;exitY=0.25;exitDx=0;exitDy=0;exitPerimeter=0;entryX=0;entryY=0.5;entryDx=0;entryDy=0;" edge="1" parent="1" source="3lKRfwnc0ouoPAwV5v7Q-29" target="3lKRfwnc0ouoPAwV5v7Q-2">
          <mxGeometry relative="1" as="geometry" />
        </mxCell>
        <mxCell id="3lKRfwnc0ouoPAwV5v7Q-29" value="" style="pointerEvents=1;verticalLabelPosition=bottom;shadow=0;dashed=0;align=center;html=1;verticalAlign=top;shape=mxgraph.electrical.miscellaneous.co-ax;" vertex="1" parent="1">
          <mxGeometry x="425" y="585" width="40" height="60" as="geometry" />
        </mxCell>
        <mxCell id="3lKRfwnc0ouoPAwV5v7Q-33" style="edgeStyle=orthogonalEdgeStyle;rounded=0;orthogonalLoop=1;jettySize=auto;html=1;exitX=1;exitY=0.5;exitDx=0;exitDy=0;entryX=0;entryY=0.5;entryDx=0;entryDy=0;entryPerimeter=0;" edge="1" parent="1" source="3lKRfwnc0ouoPAwV5v7Q-2" target="3lKRfwnc0ouoPAwV5v7Q-5">
          <mxGeometry relative="1" as="geometry" />
        </mxCell>
        <mxCell id="3lKRfwnc0ouoPAwV5v7Q-34" value="ENTRADA&lt;br&gt;ANALOGICA" style="text;html=1;align=center;verticalAlign=middle;resizable=0;points=[];autosize=1;strokeColor=none;fillColor=none;" vertex="1" parent="1">
          <mxGeometry x="395" y="540" width="90" height="45" as="geometry" />
        </mxCell>
        <mxCell id="3lKRfwnc0ouoPAwV5v7Q-36" value="" style="rounded=0;whiteSpace=wrap;html=1;dashed=1;fillColor=none;" vertex="1" parent="1">
          <mxGeometry x="380" y="720" width="660" height="180" as="geometry" />
        </mxCell>
        <mxCell id="3lKRfwnc0ouoPAwV5v7Q-37" value="CKT.&lt;br&gt;PROT.&lt;br&gt;ESD" style="rounded=0;whiteSpace=wrap;html=1;" vertex="1" parent="1">
          <mxGeometry x="500" y="780" width="80" height="80" as="geometry" />
        </mxCell>
        <mxCell id="3lKRfwnc0ouoPAwV5v7Q-38" value="" style="verticalLabelPosition=bottom;shadow=0;dashed=0;align=center;html=1;verticalAlign=top;shape=mxgraph.electrical.logic_gates.buffer2;" vertex="1" parent="1">
          <mxGeometry x="720" y="790" width="100" height="60" as="geometry" />
        </mxCell>
        <mxCell id="3lKRfwnc0ouoPAwV5v7Q-39" style="edgeStyle=orthogonalEdgeStyle;rounded=0;orthogonalLoop=1;jettySize=auto;html=1;exitX=1;exitY=0.5;exitDx=0;exitDy=0;exitPerimeter=0;entryX=0;entryY=0.5;entryDx=0;entryDy=0;endArrow=none;startFill=0;" edge="1" parent="1" source="3lKRfwnc0ouoPAwV5v7Q-41" target="3lKRfwnc0ouoPAwV5v7Q-38">
          <mxGeometry relative="1" as="geometry" />
        </mxCell>
        <mxCell id="3lKRfwnc0ouoPAwV5v7Q-40" style="edgeStyle=orthogonalEdgeStyle;rounded=0;orthogonalLoop=1;jettySize=auto;html=1;exitX=1;exitY=0.5;exitDx=0;exitDy=0;exitPerimeter=0;entryX=0.202;entryY=0.495;entryDx=0;entryDy=0;entryPerimeter=0;" edge="1" parent="1" source="3lKRfwnc0ouoPAwV5v7Q-41" target="3lKRfwnc0ouoPAwV5v7Q-38">
          <mxGeometry relative="1" as="geometry">
            <mxPoint x="720" y="820.1428571428571" as="targetPoint" />
          </mxGeometry>
        </mxCell>
        <mxCell id="3lKRfwnc0ouoPAwV5v7Q-41" value="" style="verticalLabelPosition=bottom;shadow=0;dashed=0;align=center;html=1;verticalAlign=top;shape=mxgraph.electrical.logic_gates.lowpass_filter;" vertex="1" parent="1">
          <mxGeometry x="620" y="780" width="80" height="80" as="geometry" />
        </mxCell>
        <mxCell id="3lKRfwnc0ouoPAwV5v7Q-44" value="Filtro&lt;br&gt;HF" style="text;html=1;align=center;verticalAlign=middle;resizable=0;points=[];autosize=1;strokeColor=none;fillColor=none;" vertex="1" parent="1">
          <mxGeometry x="635" y="743" width="50" height="45" as="geometry" />
        </mxCell>
        <mxCell id="qaGOUiasaQDMikoR0vgw-22" style="edgeStyle=orthogonalEdgeStyle;rounded=0;orthogonalLoop=1;jettySize=auto;html=1;exitX=1;exitY=0.5;exitDx=0;exitDy=0;exitPerimeter=0;entryX=0;entryY=0.25;entryDx=0;entryDy=0;" edge="1" parent="1" source="3lKRfwnc0ouoPAwV5v7Q-45" target="3lKRfwnc0ouoPAwV5v7Q-200">
          <mxGeometry relative="1" as="geometry" />
        </mxCell>
        <mxCell id="3lKRfwnc0ouoPAwV5v7Q-45" value="" style="verticalLabelPosition=bottom;shadow=0;dashed=0;align=center;html=1;verticalAlign=top;shape=mxgraph.electrical.logic_gates.lowpass_filter;" vertex="1" parent="1">
          <mxGeometry x="920" y="780" width="80" height="80" as="geometry" />
        </mxCell>
        <mxCell id="3lKRfwnc0ouoPAwV5v7Q-46" value="Filtro&lt;br&gt;Antialising" style="text;html=1;align=center;verticalAlign=middle;resizable=0;points=[];autosize=1;strokeColor=none;fillColor=none;" vertex="1" parent="1">
          <mxGeometry x="920" y="740" width="80" height="40" as="geometry" />
        </mxCell>
        <mxCell id="3lKRfwnc0ouoPAwV5v7Q-47" value="" style="verticalLabelPosition=bottom;shadow=0;dashed=0;align=center;html=1;verticalAlign=top;shape=mxgraph.electrical.abstract.summation_point;" vertex="1" parent="1">
          <mxGeometry x="840" y="800" width="40" height="40" as="geometry" />
        </mxCell>
        <mxCell id="3lKRfwnc0ouoPAwV5v7Q-49" style="edgeStyle=orthogonalEdgeStyle;rounded=0;orthogonalLoop=1;jettySize=auto;html=1;exitX=0.5;exitY=0;exitDx=0;exitDy=0;exitPerimeter=0;entryX=0.5;entryY=0;entryDx=0;entryDy=0;entryPerimeter=0;" edge="1" parent="1" target="3lKRfwnc0ouoPAwV5v7Q-47">
          <mxGeometry relative="1" as="geometry">
            <mxPoint x="860" y="780" as="sourcePoint" />
          </mxGeometry>
        </mxCell>
        <mxCell id="3lKRfwnc0ouoPAwV5v7Q-50" style="edgeStyle=orthogonalEdgeStyle;rounded=0;orthogonalLoop=1;jettySize=auto;html=1;exitX=1;exitY=0.5;exitDx=0;exitDy=0;entryX=0;entryY=0.5;entryDx=0;entryDy=0;entryPerimeter=0;" edge="1" parent="1" source="3lKRfwnc0ouoPAwV5v7Q-38" target="3lKRfwnc0ouoPAwV5v7Q-47">
          <mxGeometry relative="1" as="geometry" />
        </mxCell>
        <mxCell id="3lKRfwnc0ouoPAwV5v7Q-51" style="edgeStyle=orthogonalEdgeStyle;rounded=0;orthogonalLoop=1;jettySize=auto;html=1;exitX=1;exitY=0.5;exitDx=0;exitDy=0;exitPerimeter=0;entryX=0;entryY=0.5;entryDx=0;entryDy=0;entryPerimeter=0;" edge="1" parent="1" source="3lKRfwnc0ouoPAwV5v7Q-47" target="3lKRfwnc0ouoPAwV5v7Q-45">
          <mxGeometry relative="1" as="geometry" />
        </mxCell>
        <mxCell id="3lKRfwnc0ouoPAwV5v7Q-52" value="Atenuador" style="text;html=1;align=center;verticalAlign=middle;resizable=0;points=[];autosize=1;strokeColor=none;fillColor=none;" vertex="1" parent="1">
          <mxGeometry x="730" y="750" width="80" height="30" as="geometry" />
        </mxCell>
        <mxCell id="3lKRfwnc0ouoPAwV5v7Q-53" style="edgeStyle=orthogonalEdgeStyle;rounded=0;orthogonalLoop=1;jettySize=auto;html=1;exitX=1;exitY=0.25;exitDx=0;exitDy=0;exitPerimeter=0;entryX=0;entryY=0.5;entryDx=0;entryDy=0;" edge="1" parent="1" source="3lKRfwnc0ouoPAwV5v7Q-54" target="3lKRfwnc0ouoPAwV5v7Q-37">
          <mxGeometry relative="1" as="geometry" />
        </mxCell>
        <mxCell id="3lKRfwnc0ouoPAwV5v7Q-54" value="" style="pointerEvents=1;verticalLabelPosition=bottom;shadow=0;dashed=0;align=center;html=1;verticalAlign=top;shape=mxgraph.electrical.miscellaneous.co-ax;" vertex="1" parent="1">
          <mxGeometry x="425" y="805" width="40" height="60" as="geometry" />
        </mxCell>
        <mxCell id="3lKRfwnc0ouoPAwV5v7Q-55" style="edgeStyle=orthogonalEdgeStyle;rounded=0;orthogonalLoop=1;jettySize=auto;html=1;exitX=1;exitY=0.5;exitDx=0;exitDy=0;entryX=0;entryY=0.5;entryDx=0;entryDy=0;entryPerimeter=0;" edge="1" parent="1" source="3lKRfwnc0ouoPAwV5v7Q-37" target="3lKRfwnc0ouoPAwV5v7Q-41">
          <mxGeometry relative="1" as="geometry" />
        </mxCell>
        <mxCell id="3lKRfwnc0ouoPAwV5v7Q-56" value="ENTRADA&lt;br&gt;ANALOGICA" style="text;html=1;align=center;verticalAlign=middle;resizable=0;points=[];autosize=1;strokeColor=none;fillColor=none;" vertex="1" parent="1">
          <mxGeometry x="395" y="760" width="90" height="45" as="geometry" />
        </mxCell>
        <mxCell id="3lKRfwnc0ouoPAwV5v7Q-57" value="ENTRADA ANALÃGICA A0" style="text;html=1;align=center;verticalAlign=middle;resizable=0;points=[];autosize=1;strokeColor=none;fillColor=none;fontStyle=1;fontSize=14;" vertex="1" parent="1">
          <mxGeometry x="380" y="500" width="190" height="35" as="geometry" />
        </mxCell>
        <mxCell id="3lKRfwnc0ouoPAwV5v7Q-58" value="ENTRADA ANALÃGICA A1" style="text;html=1;align=center;verticalAlign=middle;resizable=0;points=[];autosize=1;strokeColor=none;fillColor=none;fontStyle=1;fontSize=14;" vertex="1" parent="1">
          <mxGeometry x="380" y="720" width="190" height="35" as="geometry" />
        </mxCell>
        <mxCell id="3lKRfwnc0ouoPAwV5v7Q-59" value="" style="rounded=0;whiteSpace=wrap;html=1;dashed=1;fillColor=none;" vertex="1" parent="1">
          <mxGeometry x="380" y="940" width="660" height="180" as="geometry" />
        </mxCell>
        <mxCell id="3lKRfwnc0ouoPAwV5v7Q-195" style="edgeStyle=orthogonalEdgeStyle;rounded=0;orthogonalLoop=1;jettySize=auto;html=1;exitX=1;exitY=0.5;exitDx=0;exitDy=0;entryX=0;entryY=0.5;entryDx=0;entryDy=0;" edge="1" parent="1" source="3lKRfwnc0ouoPAwV5v7Q-60" target="3lKRfwnc0ouoPAwV5v7Q-162">
          <mxGeometry relative="1" as="geometry" />
        </mxCell>
        <mxCell id="3lKRfwnc0ouoPAwV5v7Q-60" value="CKT.&lt;br&gt;PROT.&lt;br&gt;ESD" style="rounded=0;whiteSpace=wrap;html=1;" vertex="1" parent="1">
          <mxGeometry x="500" y="1000" width="80" height="80" as="geometry" />
        </mxCell>
        <mxCell id="3lKRfwnc0ouoPAwV5v7Q-76" style="edgeStyle=orthogonalEdgeStyle;rounded=0;orthogonalLoop=1;jettySize=auto;html=1;exitX=1;exitY=0.25;exitDx=0;exitDy=0;exitPerimeter=0;entryX=0;entryY=0.5;entryDx=0;entryDy=0;" edge="1" parent="1" source="3lKRfwnc0ouoPAwV5v7Q-77" target="3lKRfwnc0ouoPAwV5v7Q-60">
          <mxGeometry relative="1" as="geometry" />
        </mxCell>
        <mxCell id="3lKRfwnc0ouoPAwV5v7Q-77" value="" style="pointerEvents=1;verticalLabelPosition=bottom;shadow=0;dashed=0;align=center;html=1;verticalAlign=top;shape=mxgraph.electrical.miscellaneous.co-ax;" vertex="1" parent="1">
          <mxGeometry x="425" y="1025" width="40" height="60" as="geometry" />
        </mxCell>
        <mxCell id="3lKRfwnc0ouoPAwV5v7Q-79" value="ENTRADA&lt;br&gt;ANALOGICA" style="text;html=1;align=center;verticalAlign=middle;resizable=0;points=[];autosize=1;strokeColor=none;fillColor=none;" vertex="1" parent="1">
          <mxGeometry x="395" y="980" width="90" height="45" as="geometry" />
        </mxCell>
        <mxCell id="3lKRfwnc0ouoPAwV5v7Q-101" value="ENTRADA DIGITAL 00" style="text;html=1;align=center;verticalAlign=middle;resizable=0;points=[];autosize=1;strokeColor=none;fillColor=none;fontStyle=1;fontSize=14;" vertex="1" parent="1">
          <mxGeometry x="380" y="940" width="165" height="35" as="geometry" />
        </mxCell>
        <mxCell id="3lKRfwnc0ouoPAwV5v7Q-209" style="edgeStyle=orthogonalEdgeStyle;rounded=0;orthogonalLoop=1;jettySize=auto;html=1;exitX=1;exitY=0.5;exitDx=0;exitDy=0;entryX=0;entryY=0.5;entryDx=0;entryDy=0;" edge="1" parent="1" source="3lKRfwnc0ouoPAwV5v7Q-162">
          <mxGeometry relative="1" as="geometry">
            <mxPoint x="740" y="1040" as="targetPoint" />
          </mxGeometry>
        </mxCell>
        <mxCell id="3lKRfwnc0ouoPAwV5v7Q-162" value="CKT.&lt;br&gt;PROT.&lt;br&gt;POLARIDAD" style="rounded=0;whiteSpace=wrap;html=1;" vertex="1" parent="1">
          <mxGeometry x="620" y="1000" width="80" height="80" as="geometry" />
        </mxCell>
        <mxCell id="3lKRfwnc0ouoPAwV5v7Q-163" value="" style="rounded=0;whiteSpace=wrap;html=1;dashed=1;fillColor=none;" vertex="1" parent="1">
          <mxGeometry x="380" y="1160" width="660" height="180" as="geometry" />
        </mxCell>
        <mxCell id="3lKRfwnc0ouoPAwV5v7Q-164" style="edgeStyle=orthogonalEdgeStyle;rounded=0;orthogonalLoop=1;jettySize=auto;html=1;exitX=1;exitY=0.5;exitDx=0;exitDy=0;entryX=0;entryY=0.5;entryDx=0;entryDy=0;" edge="1" parent="1" source="3lKRfwnc0ouoPAwV5v7Q-178">
          <mxGeometry relative="1" as="geometry">
            <mxPoint x="740" y="1260" as="targetPoint" />
          </mxGeometry>
        </mxCell>
        <mxCell id="3lKRfwnc0ouoPAwV5v7Q-197" style="edgeStyle=orthogonalEdgeStyle;rounded=0;orthogonalLoop=1;jettySize=auto;html=1;exitX=1;exitY=0.5;exitDx=0;exitDy=0;entryX=0;entryY=0.5;entryDx=0;entryDy=0;" edge="1" parent="1" source="3lKRfwnc0ouoPAwV5v7Q-165" target="3lKRfwnc0ouoPAwV5v7Q-178">
          <mxGeometry relative="1" as="geometry" />
        </mxCell>
        <mxCell id="3lKRfwnc0ouoPAwV5v7Q-165" value="CKT.&lt;br&gt;PROT.&lt;br&gt;ESD" style="rounded=0;whiteSpace=wrap;html=1;" vertex="1" parent="1">
          <mxGeometry x="500" y="1220" width="80" height="80" as="geometry" />
        </mxCell>
        <mxCell id="3lKRfwnc0ouoPAwV5v7Q-171" style="edgeStyle=orthogonalEdgeStyle;rounded=0;orthogonalLoop=1;jettySize=auto;html=1;exitX=1;exitY=0.25;exitDx=0;exitDy=0;exitPerimeter=0;entryX=0;entryY=0.5;entryDx=0;entryDy=0;" edge="1" parent="1" source="3lKRfwnc0ouoPAwV5v7Q-172" target="3lKRfwnc0ouoPAwV5v7Q-165">
          <mxGeometry relative="1" as="geometry" />
        </mxCell>
        <mxCell id="3lKRfwnc0ouoPAwV5v7Q-172" value="" style="pointerEvents=1;verticalLabelPosition=bottom;shadow=0;dashed=0;align=center;html=1;verticalAlign=top;shape=mxgraph.electrical.miscellaneous.co-ax;" vertex="1" parent="1">
          <mxGeometry x="425" y="1245" width="40" height="60" as="geometry" />
        </mxCell>
        <mxCell id="3lKRfwnc0ouoPAwV5v7Q-173" value="ENTRADA&lt;br&gt;ANALOGICA" style="text;html=1;align=center;verticalAlign=middle;resizable=0;points=[];autosize=1;strokeColor=none;fillColor=none;" vertex="1" parent="1">
          <mxGeometry x="395" y="1200" width="90" height="45" as="geometry" />
        </mxCell>
        <mxCell id="3lKRfwnc0ouoPAwV5v7Q-174" value="ENTRADA DIGITAL 01" style="text;html=1;align=center;verticalAlign=middle;resizable=0;points=[];autosize=1;strokeColor=none;fillColor=none;fontStyle=1;fontSize=14;" vertex="1" parent="1">
          <mxGeometry x="380" y="1160" width="165" height="35" as="geometry" />
        </mxCell>
        <mxCell id="3lKRfwnc0ouoPAwV5v7Q-178" value="CKT.&lt;br&gt;PROT.&lt;br&gt;POLARIDAD" style="rounded=0;whiteSpace=wrap;html=1;" vertex="1" parent="1">
          <mxGeometry x="620" y="1220" width="80" height="80" as="geometry" />
        </mxCell>
        <mxCell id="3lKRfwnc0ouoPAwV5v7Q-180" style="edgeStyle=orthogonalEdgeStyle;rounded=0;orthogonalLoop=1;jettySize=auto;html=1;exitX=1;exitY=0.5;exitDx=0;exitDy=0;entryX=0;entryY=0.5;entryDx=0;entryDy=0;" edge="1" parent="1" source="3lKRfwnc0ouoPAwV5v7Q-194">
          <mxGeometry relative="1" as="geometry">
            <mxPoint x="740" y="1480" as="targetPoint" />
          </mxGeometry>
        </mxCell>
        <mxCell id="3lKRfwnc0ouoPAwV5v7Q-198" style="edgeStyle=orthogonalEdgeStyle;rounded=0;orthogonalLoop=1;jettySize=auto;html=1;exitX=1;exitY=0.5;exitDx=0;exitDy=0;entryX=0;entryY=0.5;entryDx=0;entryDy=0;" edge="1" parent="1" source="3lKRfwnc0ouoPAwV5v7Q-181" target="3lKRfwnc0ouoPAwV5v7Q-194">
          <mxGeometry relative="1" as="geometry" />
        </mxCell>
        <mxCell id="3lKRfwnc0ouoPAwV5v7Q-181" value="CKT.&lt;br&gt;PROT.&lt;br&gt;ESD" style="rounded=0;whiteSpace=wrap;html=1;" vertex="1" parent="1">
          <mxGeometry x="500" y="1440" width="80" height="80" as="geometry" />
        </mxCell>
        <mxCell id="3lKRfwnc0ouoPAwV5v7Q-187" style="edgeStyle=orthogonalEdgeStyle;rounded=0;orthogonalLoop=1;jettySize=auto;html=1;exitX=1;exitY=0.25;exitDx=0;exitDy=0;exitPerimeter=0;entryX=0;entryY=0.5;entryDx=0;entryDy=0;" edge="1" parent="1" source="3lKRfwnc0ouoPAwV5v7Q-188" target="3lKRfwnc0ouoPAwV5v7Q-181">
          <mxGeometry relative="1" as="geometry" />
        </mxCell>
        <mxCell id="3lKRfwnc0ouoPAwV5v7Q-188" value="" style="pointerEvents=1;verticalLabelPosition=bottom;shadow=0;dashed=0;align=center;html=1;verticalAlign=top;shape=mxgraph.electrical.miscellaneous.co-ax;" vertex="1" parent="1">
          <mxGeometry x="425" y="1465" width="40" height="60" as="geometry" />
        </mxCell>
        <mxCell id="3lKRfwnc0ouoPAwV5v7Q-189" value="ENTRADA&lt;br&gt;ANALOGICA" style="text;html=1;align=center;verticalAlign=middle;resizable=0;points=[];autosize=1;strokeColor=none;fillColor=none;" vertex="1" parent="1">
          <mxGeometry x="395" y="1420" width="90" height="45" as="geometry" />
        </mxCell>
        <mxCell id="3lKRfwnc0ouoPAwV5v7Q-190" value="ENTRADA DIGITAL 02" style="text;html=1;align=center;verticalAlign=middle;resizable=0;points=[];autosize=1;strokeColor=none;fillColor=none;fontStyle=1;fontSize=14;" vertex="1" parent="1">
          <mxGeometry x="380" y="1380" width="165" height="35" as="geometry" />
        </mxCell>
        <mxCell id="3lKRfwnc0ouoPAwV5v7Q-194" value="CKT.&lt;br&gt;PROT.&lt;br&gt;POLARIDAD" style="rounded=0;whiteSpace=wrap;html=1;" vertex="1" parent="1">
          <mxGeometry x="620" y="1440" width="80" height="80" as="geometry" />
        </mxCell>
        <mxCell id="3lKRfwnc0ouoPAwV5v7Q-341" style="edgeStyle=orthogonalEdgeStyle;rounded=0;orthogonalLoop=1;jettySize=auto;html=1;exitX=1;exitY=0.25;exitDx=0;exitDy=0;entryX=0;entryY=0.5;entryDx=0;entryDy=0;" edge="1" parent="1" source="3lKRfwnc0ouoPAwV5v7Q-200" target="3lKRfwnc0ouoPAwV5v7Q-340">
          <mxGeometry relative="1" as="geometry">
            <Array as="points">
              <mxPoint x="1400" y="820" />
            </Array>
          </mxGeometry>
        </mxCell>
        <mxCell id="3lKRfwnc0ouoPAwV5v7Q-342" style="edgeStyle=orthogonalEdgeStyle;rounded=0;orthogonalLoop=1;jettySize=auto;html=1;exitX=1;exitY=0.25;exitDx=0;exitDy=0;entryX=0;entryY=0.5;entryDx=0;entryDy=0;" edge="1" parent="1" source="3lKRfwnc0ouoPAwV5v7Q-200" target="3lKRfwnc0ouoPAwV5v7Q-323">
          <mxGeometry relative="1" as="geometry">
            <Array as="points">
              <mxPoint x="1400" y="600" />
            </Array>
          </mxGeometry>
        </mxCell>
        <mxCell id="3lKRfwnc0ouoPAwV5v7Q-358" style="edgeStyle=orthogonalEdgeStyle;rounded=0;orthogonalLoop=1;jettySize=auto;html=1;exitX=1;exitY=0.5;exitDx=0;exitDy=0;entryX=0;entryY=0.5;entryDx=0;entryDy=0;" edge="1" parent="1" source="3lKRfwnc0ouoPAwV5v7Q-200" target="3lKRfwnc0ouoPAwV5v7Q-357">
          <mxGeometry relative="1" as="geometry">
            <Array as="points">
              <mxPoint x="1400" y="1040" />
            </Array>
          </mxGeometry>
        </mxCell>
        <mxCell id="3lKRfwnc0ouoPAwV5v7Q-373" style="edgeStyle=orthogonalEdgeStyle;rounded=0;orthogonalLoop=1;jettySize=auto;html=1;exitX=1;exitY=0.75;exitDx=0;exitDy=0;entryX=0;entryY=0.5;entryDx=0;entryDy=0;" edge="1" parent="1" source="3lKRfwnc0ouoPAwV5v7Q-200" target="3lKRfwnc0ouoPAwV5v7Q-372">
          <mxGeometry relative="1" as="geometry">
            <Array as="points">
              <mxPoint x="1400" y="1260" />
            </Array>
          </mxGeometry>
        </mxCell>
        <mxCell id="3lKRfwnc0ouoPAwV5v7Q-388" style="edgeStyle=orthogonalEdgeStyle;rounded=0;orthogonalLoop=1;jettySize=auto;html=1;exitX=1;exitY=0.75;exitDx=0;exitDy=0;entryX=0;entryY=0.5;entryDx=0;entryDy=0;" edge="1" parent="1" source="3lKRfwnc0ouoPAwV5v7Q-200" target="3lKRfwnc0ouoPAwV5v7Q-387">
          <mxGeometry relative="1" as="geometry">
            <Array as="points">
              <mxPoint x="1400" y="1480" />
            </Array>
          </mxGeometry>
        </mxCell>
        <mxCell id="6sdn03XjU-XbY_COcO21-54" style="edgeStyle=orthogonalEdgeStyle;rounded=0;orthogonalLoop=1;jettySize=auto;html=1;exitX=0.5;exitY=1;exitDx=0;exitDy=0;entryX=0.5;entryY=1;entryDx=0;entryDy=0;" edge="1" parent="1" source="3lKRfwnc0ouoPAwV5v7Q-200" target="6sdn03XjU-XbY_COcO21-47">
          <mxGeometry relative="1" as="geometry">
            <Array as="points">
              <mxPoint x="1220" y="1840" />
              <mxPoint x="1220" y="2261" />
              <mxPoint x="949" y="2261" />
            </Array>
            <mxPoint x="1260" y="1961.12" as="sourcePoint" />
          </mxGeometry>
        </mxCell>
        <mxCell id="6sdn03XjU-XbY_COcO21-55" value="SDOUT_uC" style="edgeLabel;html=1;align=center;verticalAlign=middle;resizable=0;points=[];rotation=270;" connectable="0" vertex="1" parent="6sdn03XjU-XbY_COcO21-54">
          <mxGeometry x="-0.7232" y="-2" relative="1" as="geometry">
            <mxPoint x="-8" y="-14" as="offset" />
          </mxGeometry>
        </mxCell>
        <mxCell id="6sdn03XjU-XbY_COcO21-153" style="edgeStyle=orthogonalEdgeStyle;rounded=0;orthogonalLoop=1;jettySize=auto;html=1;exitX=-0.028;exitY=0.53;exitDx=0;exitDy=0;entryX=0.5;entryY=1;entryDx=0;entryDy=0;endArrow=none;startFill=0;exitPerimeter=0;" edge="1" parent="1" source="1Z2X5GZ7vUzWExn99gd6-58" target="6sdn03XjU-XbY_COcO21-128">
          <mxGeometry relative="1" as="geometry">
            <Array as="points">
              <mxPoint x="1332" y="2581" />
            </Array>
            <mxPoint x="1330" y="1961.12" as="sourcePoint" />
          </mxGeometry>
        </mxCell>
        <mxCell id="3lKRfwnc0ouoPAwV5v7Q-200" value="" style="whiteSpace=wrap;html=1;shadow=1;" vertex="1" parent="1">
          <mxGeometry x="1120" y="480" width="280" height="1360" as="geometry" />
        </mxCell>
        <mxCell id="3lKRfwnc0ouoPAwV5v7Q-212" value="ADC_01" style="text;strokeColor=none;align=left;fillColor=none;html=1;verticalAlign=middle;whiteSpace=wrap;rounded=0;" vertex="1" parent="1">
          <mxGeometry x="1130" y="585" width="60" height="30" as="geometry" />
        </mxCell>
        <mxCell id="3lKRfwnc0ouoPAwV5v7Q-213" value="ADC_02" style="text;strokeColor=none;align=left;fillColor=none;html=1;verticalAlign=middle;whiteSpace=wrap;rounded=0;" vertex="1" parent="1">
          <mxGeometry x="1130" y="805" width="60" height="30" as="geometry" />
        </mxCell>
        <mxCell id="3lKRfwnc0ouoPAwV5v7Q-214" value="IN_D0" style="text;strokeColor=none;align=left;fillColor=none;html=1;verticalAlign=middle;whiteSpace=wrap;rounded=0;" vertex="1" parent="1">
          <mxGeometry x="1135" y="1025" width="60" height="30" as="geometry" />
        </mxCell>
        <mxCell id="3lKRfwnc0ouoPAwV5v7Q-215" value="IN_D1" style="text;strokeColor=none;align=left;fillColor=none;html=1;verticalAlign=middle;whiteSpace=wrap;rounded=0;" vertex="1" parent="1">
          <mxGeometry x="1130" y="1245" width="60" height="30" as="geometry" />
        </mxCell>
        <mxCell id="3lKRfwnc0ouoPAwV5v7Q-216" value="IN_D2" style="text;strokeColor=none;align=left;fillColor=none;html=1;verticalAlign=middle;whiteSpace=wrap;rounded=0;" vertex="1" parent="1">
          <mxGeometry x="1130" y="1465" width="60" height="30" as="geometry" />
        </mxCell>
        <mxCell id="3lKRfwnc0ouoPAwV5v7Q-217" value="" style="rounded=0;whiteSpace=wrap;html=1;dashed=1;fillColor=none;" vertex="1" parent="1">
          <mxGeometry x="1480" y="500" width="560" height="180" as="geometry" />
        </mxCell>
        <mxCell id="3lKRfwnc0ouoPAwV5v7Q-235" value="" style="pointerEvents=1;verticalLabelPosition=bottom;shadow=0;dashed=0;align=center;html=1;verticalAlign=top;shape=mxgraph.electrical.miscellaneous.co-ax;flipH=1;" vertex="1" parent="1">
          <mxGeometry x="1975" y="585" width="40" height="60" as="geometry" />
        </mxCell>
        <mxCell id="3lKRfwnc0ouoPAwV5v7Q-237" value="SALIDA&lt;br&gt;PWM" style="text;html=1;align=center;verticalAlign=middle;resizable=0;points=[];autosize=1;strokeColor=none;fillColor=none;" vertex="1" parent="1">
          <mxGeometry x="1970" y="535" width="65" height="45" as="geometry" />
        </mxCell>
        <mxCell id="3lKRfwnc0ouoPAwV5v7Q-238" value="" style="rounded=0;whiteSpace=wrap;html=1;dashed=1;fillColor=none;" vertex="1" parent="1">
          <mxGeometry x="1480" y="720" width="560" height="180" as="geometry" />
        </mxCell>
        <mxCell id="3lKRfwnc0ouoPAwV5v7Q-259" value="SALIDA PWM A0" style="text;html=1;align=center;verticalAlign=middle;resizable=0;points=[];autosize=1;strokeColor=none;fillColor=none;fontStyle=1;fontSize=14;" vertex="1" parent="1">
          <mxGeometry x="1480" y="500" width="130" height="35" as="geometry" />
        </mxCell>
        <mxCell id="3lKRfwnc0ouoPAwV5v7Q-261" value="" style="rounded=0;whiteSpace=wrap;html=1;dashed=1;fillColor=none;" vertex="1" parent="1">
          <mxGeometry x="1480" y="940" width="560" height="180" as="geometry" />
        </mxCell>
        <mxCell id="3lKRfwnc0ouoPAwV5v7Q-278" value="" style="rounded=0;whiteSpace=wrap;html=1;dashed=1;fillColor=none;" vertex="1" parent="1">
          <mxGeometry x="1480" y="1160" width="560" height="180" as="geometry" />
        </mxCell>
        <mxCell id="3lKRfwnc0ouoPAwV5v7Q-295" value="" style="rounded=0;whiteSpace=wrap;html=1;dashed=1;fillColor=none;" vertex="1" parent="1">
          <mxGeometry x="1480" y="1380" width="560" height="180" as="geometry" />
        </mxCell>
        <mxCell id="3lKRfwnc0ouoPAwV5v7Q-312" value="CKT.&lt;br&gt;PROT.&lt;br&gt;ESD" style="rounded=0;whiteSpace=wrap;html=1;" vertex="1" parent="1">
          <mxGeometry x="1880" y="560" width="80" height="80" as="geometry" />
        </mxCell>
        <mxCell id="3lKRfwnc0ouoPAwV5v7Q-313" style="edgeStyle=orthogonalEdgeStyle;rounded=0;orthogonalLoop=1;jettySize=auto;html=1;exitX=1;exitY=0.5;exitDx=0;exitDy=0;entryX=1;entryY=0.25;entryDx=0;entryDy=0;entryPerimeter=0;" edge="1" parent="1" source="3lKRfwnc0ouoPAwV5v7Q-312" target="3lKRfwnc0ouoPAwV5v7Q-235">
          <mxGeometry relative="1" as="geometry" />
        </mxCell>
        <mxCell id="3lKRfwnc0ouoPAwV5v7Q-315" style="edgeStyle=orthogonalEdgeStyle;rounded=0;orthogonalLoop=1;jettySize=auto;html=1;exitX=1;exitY=0.5;exitDx=0;exitDy=0;entryX=0;entryY=0.5;entryDx=0;entryDy=0;" edge="1" parent="1" source="3lKRfwnc0ouoPAwV5v7Q-314" target="3lKRfwnc0ouoPAwV5v7Q-312">
          <mxGeometry relative="1" as="geometry" />
        </mxCell>
        <mxCell id="3lKRfwnc0ouoPAwV5v7Q-314" value="CKT.&lt;br&gt;PROT.&lt;br&gt;C.C." style="rounded=0;whiteSpace=wrap;html=1;" vertex="1" parent="1">
          <mxGeometry x="1760" y="560" width="80" height="80" as="geometry" />
        </mxCell>
        <mxCell id="3lKRfwnc0ouoPAwV5v7Q-322" style="edgeStyle=orthogonalEdgeStyle;rounded=0;orthogonalLoop=1;jettySize=auto;html=1;exitX=1;exitY=0.5;exitDx=0;exitDy=0;entryX=0;entryY=0.5;entryDx=0;entryDy=0;" edge="1" parent="1" target="3lKRfwnc0ouoPAwV5v7Q-314">
          <mxGeometry relative="1" as="geometry">
            <mxPoint x="1720" y="600" as="sourcePoint" />
          </mxGeometry>
        </mxCell>
        <mxCell id="3lKRfwnc0ouoPAwV5v7Q-324" style="edgeStyle=orthogonalEdgeStyle;rounded=0;orthogonalLoop=1;jettySize=auto;html=1;exitX=1;exitY=0.5;exitDx=0;exitDy=0;entryX=0;entryY=0.5;entryDx=0;entryDy=0;" edge="1" parent="1" source="3lKRfwnc0ouoPAwV5v7Q-323">
          <mxGeometry relative="1" as="geometry">
            <mxPoint x="1660" y="600" as="targetPoint" />
          </mxGeometry>
        </mxCell>
        <mxCell id="3lKRfwnc0ouoPAwV5v7Q-323" value="CKT.&lt;br&gt;PROT.&lt;br&gt;C.LIM." style="rounded=0;whiteSpace=wrap;html=1;" vertex="1" parent="1">
          <mxGeometry x="1540" y="560" width="80" height="80" as="geometry" />
        </mxCell>
        <mxCell id="3lKRfwnc0ouoPAwV5v7Q-326" value="" style="pointerEvents=1;verticalLabelPosition=bottom;shadow=0;dashed=0;align=center;html=1;verticalAlign=top;shape=mxgraph.electrical.miscellaneous.co-ax;flipH=1;" vertex="1" parent="1">
          <mxGeometry x="1975" y="805" width="40" height="60" as="geometry" />
        </mxCell>
        <mxCell id="3lKRfwnc0ouoPAwV5v7Q-327" value="SALIDA&lt;br&gt;PWM" style="text;html=1;align=center;verticalAlign=middle;resizable=0;points=[];autosize=1;strokeColor=none;fillColor=none;" vertex="1" parent="1">
          <mxGeometry x="1970" y="755" width="65" height="45" as="geometry" />
        </mxCell>
        <mxCell id="3lKRfwnc0ouoPAwV5v7Q-328" value="SALIDA PWM A0" style="text;html=1;align=center;verticalAlign=middle;resizable=0;points=[];autosize=1;strokeColor=none;fillColor=none;fontStyle=1;fontSize=14;" vertex="1" parent="1">
          <mxGeometry x="1480" y="720" width="130" height="35" as="geometry" />
        </mxCell>
        <mxCell id="3lKRfwnc0ouoPAwV5v7Q-329" value="CKT.&lt;br&gt;PROT.&lt;br&gt;ESD" style="rounded=0;whiteSpace=wrap;html=1;" vertex="1" parent="1">
          <mxGeometry x="1880" y="780" width="80" height="80" as="geometry" />
        </mxCell>
        <mxCell id="3lKRfwnc0ouoPAwV5v7Q-330" style="edgeStyle=orthogonalEdgeStyle;rounded=0;orthogonalLoop=1;jettySize=auto;html=1;exitX=1;exitY=0.5;exitDx=0;exitDy=0;entryX=1;entryY=0.25;entryDx=0;entryDy=0;entryPerimeter=0;" edge="1" parent="1" source="3lKRfwnc0ouoPAwV5v7Q-329" target="3lKRfwnc0ouoPAwV5v7Q-326">
          <mxGeometry relative="1" as="geometry" />
        </mxCell>
        <mxCell id="3lKRfwnc0ouoPAwV5v7Q-331" style="edgeStyle=orthogonalEdgeStyle;rounded=0;orthogonalLoop=1;jettySize=auto;html=1;exitX=1;exitY=0.5;exitDx=0;exitDy=0;entryX=0;entryY=0.5;entryDx=0;entryDy=0;" edge="1" parent="1" source="3lKRfwnc0ouoPAwV5v7Q-332" target="3lKRfwnc0ouoPAwV5v7Q-329">
          <mxGeometry relative="1" as="geometry" />
        </mxCell>
        <mxCell id="3lKRfwnc0ouoPAwV5v7Q-332" value="CKT.&lt;br&gt;PROT.&lt;br&gt;C.C." style="rounded=0;whiteSpace=wrap;html=1;" vertex="1" parent="1">
          <mxGeometry x="1760" y="780" width="80" height="80" as="geometry" />
        </mxCell>
        <mxCell id="3lKRfwnc0ouoPAwV5v7Q-337" style="edgeStyle=orthogonalEdgeStyle;rounded=0;orthogonalLoop=1;jettySize=auto;html=1;exitX=1;exitY=0.5;exitDx=0;exitDy=0;entryX=0;entryY=0.5;entryDx=0;entryDy=0;" edge="1" parent="1" target="3lKRfwnc0ouoPAwV5v7Q-332">
          <mxGeometry relative="1" as="geometry">
            <mxPoint x="1720" y="820" as="sourcePoint" />
          </mxGeometry>
        </mxCell>
        <mxCell id="3lKRfwnc0ouoPAwV5v7Q-339" style="edgeStyle=orthogonalEdgeStyle;rounded=0;orthogonalLoop=1;jettySize=auto;html=1;exitX=1;exitY=0.5;exitDx=0;exitDy=0;entryX=0;entryY=0.5;entryDx=0;entryDy=0;" edge="1" parent="1" source="3lKRfwnc0ouoPAwV5v7Q-340">
          <mxGeometry relative="1" as="geometry">
            <mxPoint x="1660" y="820" as="targetPoint" />
          </mxGeometry>
        </mxCell>
        <mxCell id="3lKRfwnc0ouoPAwV5v7Q-340" value="CKT.&lt;br&gt;PROT.&lt;br&gt;C.LIM." style="rounded=0;whiteSpace=wrap;html=1;" vertex="1" parent="1">
          <mxGeometry x="1540" y="780" width="80" height="80" as="geometry" />
        </mxCell>
        <mxCell id="3lKRfwnc0ouoPAwV5v7Q-344" value="" style="pointerEvents=1;verticalLabelPosition=bottom;shadow=0;dashed=0;align=center;html=1;verticalAlign=top;shape=mxgraph.electrical.miscellaneous.co-ax;flipH=1;" vertex="1" parent="1">
          <mxGeometry x="1975" y="1025" width="40" height="60" as="geometry" />
        </mxCell>
        <mxCell id="3lKRfwnc0ouoPAwV5v7Q-345" value="SALIDA&lt;br&gt;PWM" style="text;html=1;align=center;verticalAlign=middle;resizable=0;points=[];autosize=1;strokeColor=none;fillColor=none;" vertex="1" parent="1">
          <mxGeometry x="1970" y="975" width="65" height="45" as="geometry" />
        </mxCell>
        <mxCell id="3lKRfwnc0ouoPAwV5v7Q-346" value="SALIDA DIGITIAL D0" style="text;html=1;align=center;verticalAlign=middle;resizable=0;points=[];autosize=1;strokeColor=none;fillColor=none;fontStyle=1;fontSize=14;" vertex="1" parent="1">
          <mxGeometry x="1480" y="940" width="155" height="35" as="geometry" />
        </mxCell>
        <mxCell id="3lKRfwnc0ouoPAwV5v7Q-347" value="CKT.&lt;br&gt;PROT.&lt;br&gt;ESD" style="rounded=0;whiteSpace=wrap;html=1;" vertex="1" parent="1">
          <mxGeometry x="1880" y="1000" width="80" height="80" as="geometry" />
        </mxCell>
        <mxCell id="3lKRfwnc0ouoPAwV5v7Q-348" style="edgeStyle=orthogonalEdgeStyle;rounded=0;orthogonalLoop=1;jettySize=auto;html=1;exitX=1;exitY=0.5;exitDx=0;exitDy=0;entryX=1;entryY=0.25;entryDx=0;entryDy=0;entryPerimeter=0;" edge="1" parent="1" source="3lKRfwnc0ouoPAwV5v7Q-347" target="3lKRfwnc0ouoPAwV5v7Q-344">
          <mxGeometry relative="1" as="geometry" />
        </mxCell>
        <mxCell id="3lKRfwnc0ouoPAwV5v7Q-349" style="edgeStyle=orthogonalEdgeStyle;rounded=0;orthogonalLoop=1;jettySize=auto;html=1;exitX=1;exitY=0.5;exitDx=0;exitDy=0;entryX=0;entryY=0.5;entryDx=0;entryDy=0;" edge="1" parent="1" source="3lKRfwnc0ouoPAwV5v7Q-350" target="3lKRfwnc0ouoPAwV5v7Q-347">
          <mxGeometry relative="1" as="geometry" />
        </mxCell>
        <mxCell id="3lKRfwnc0ouoPAwV5v7Q-350" value="CKT.&lt;br&gt;PROT.&lt;br&gt;C.C." style="rounded=0;whiteSpace=wrap;html=1;" vertex="1" parent="1">
          <mxGeometry x="1760" y="1000" width="80" height="80" as="geometry" />
        </mxCell>
        <mxCell id="3lKRfwnc0ouoPAwV5v7Q-354" style="edgeStyle=orthogonalEdgeStyle;rounded=0;orthogonalLoop=1;jettySize=auto;html=1;exitX=1;exitY=0.5;exitDx=0;exitDy=0;entryX=0;entryY=0.5;entryDx=0;entryDy=0;" edge="1" parent="1" target="3lKRfwnc0ouoPAwV5v7Q-350">
          <mxGeometry relative="1" as="geometry">
            <mxPoint x="1720" y="1040" as="sourcePoint" />
          </mxGeometry>
        </mxCell>
        <mxCell id="3lKRfwnc0ouoPAwV5v7Q-356" style="edgeStyle=orthogonalEdgeStyle;rounded=0;orthogonalLoop=1;jettySize=auto;html=1;exitX=1;exitY=0.5;exitDx=0;exitDy=0;entryX=0;entryY=0.5;entryDx=0;entryDy=0;" edge="1" parent="1" source="3lKRfwnc0ouoPAwV5v7Q-357">
          <mxGeometry relative="1" as="geometry">
            <mxPoint x="1660" y="1040" as="targetPoint" />
          </mxGeometry>
        </mxCell>
        <mxCell id="3lKRfwnc0ouoPAwV5v7Q-357" value="CKT.&lt;br&gt;PROT.&lt;br&gt;C.LIM." style="rounded=0;whiteSpace=wrap;html=1;" vertex="1" parent="1">
          <mxGeometry x="1540" y="1000" width="80" height="80" as="geometry" />
        </mxCell>
        <mxCell id="3lKRfwnc0ouoPAwV5v7Q-360" value="" style="pointerEvents=1;verticalLabelPosition=bottom;shadow=0;dashed=0;align=center;html=1;verticalAlign=top;shape=mxgraph.electrical.miscellaneous.co-ax;flipH=1;" vertex="1" parent="1">
          <mxGeometry x="1975" y="1245" width="40" height="60" as="geometry" />
        </mxCell>
        <mxCell id="3lKRfwnc0ouoPAwV5v7Q-361" value="SALIDA&lt;br&gt;PWM" style="text;html=1;align=center;verticalAlign=middle;resizable=0;points=[];autosize=1;strokeColor=none;fillColor=none;" vertex="1" parent="1">
          <mxGeometry x="1970" y="1195" width="65" height="45" as="geometry" />
        </mxCell>
        <mxCell id="3lKRfwnc0ouoPAwV5v7Q-362" value="CKT.&lt;br&gt;PROT.&lt;br&gt;ESD" style="rounded=0;whiteSpace=wrap;html=1;" vertex="1" parent="1">
          <mxGeometry x="1880" y="1220" width="80" height="80" as="geometry" />
        </mxCell>
        <mxCell id="3lKRfwnc0ouoPAwV5v7Q-363" style="edgeStyle=orthogonalEdgeStyle;rounded=0;orthogonalLoop=1;jettySize=auto;html=1;exitX=1;exitY=0.5;exitDx=0;exitDy=0;entryX=1;entryY=0.25;entryDx=0;entryDy=0;entryPerimeter=0;" edge="1" parent="1" source="3lKRfwnc0ouoPAwV5v7Q-362" target="3lKRfwnc0ouoPAwV5v7Q-360">
          <mxGeometry relative="1" as="geometry" />
        </mxCell>
        <mxCell id="3lKRfwnc0ouoPAwV5v7Q-364" style="edgeStyle=orthogonalEdgeStyle;rounded=0;orthogonalLoop=1;jettySize=auto;html=1;exitX=1;exitY=0.5;exitDx=0;exitDy=0;entryX=0;entryY=0.5;entryDx=0;entryDy=0;" edge="1" parent="1" source="3lKRfwnc0ouoPAwV5v7Q-365" target="3lKRfwnc0ouoPAwV5v7Q-362">
          <mxGeometry relative="1" as="geometry" />
        </mxCell>
        <mxCell id="3lKRfwnc0ouoPAwV5v7Q-365" value="CKT.&lt;br&gt;PROT.&lt;br&gt;C.C." style="rounded=0;whiteSpace=wrap;html=1;" vertex="1" parent="1">
          <mxGeometry x="1760" y="1220" width="80" height="80" as="geometry" />
        </mxCell>
        <mxCell id="3lKRfwnc0ouoPAwV5v7Q-369" style="edgeStyle=orthogonalEdgeStyle;rounded=0;orthogonalLoop=1;jettySize=auto;html=1;exitX=1;exitY=0.5;exitDx=0;exitDy=0;entryX=0;entryY=0.5;entryDx=0;entryDy=0;" edge="1" parent="1" target="3lKRfwnc0ouoPAwV5v7Q-365">
          <mxGeometry relative="1" as="geometry">
            <mxPoint x="1720" y="1260" as="sourcePoint" />
          </mxGeometry>
        </mxCell>
        <mxCell id="3lKRfwnc0ouoPAwV5v7Q-371" style="edgeStyle=orthogonalEdgeStyle;rounded=0;orthogonalLoop=1;jettySize=auto;html=1;exitX=1;exitY=0.5;exitDx=0;exitDy=0;entryX=0;entryY=0.5;entryDx=0;entryDy=0;" edge="1" parent="1" source="3lKRfwnc0ouoPAwV5v7Q-372">
          <mxGeometry relative="1" as="geometry">
            <mxPoint x="1660" y="1260" as="targetPoint" />
          </mxGeometry>
        </mxCell>
        <mxCell id="3lKRfwnc0ouoPAwV5v7Q-372" value="CKT.&lt;br&gt;PROT.&lt;br&gt;C.LIM." style="rounded=0;whiteSpace=wrap;html=1;" vertex="1" parent="1">
          <mxGeometry x="1540" y="1220" width="80" height="80" as="geometry" />
        </mxCell>
        <mxCell id="3lKRfwnc0ouoPAwV5v7Q-375" value="" style="pointerEvents=1;verticalLabelPosition=bottom;shadow=0;dashed=0;align=center;html=1;verticalAlign=top;shape=mxgraph.electrical.miscellaneous.co-ax;flipH=1;" vertex="1" parent="1">
          <mxGeometry x="1975" y="1465" width="40" height="60" as="geometry" />
        </mxCell>
        <mxCell id="3lKRfwnc0ouoPAwV5v7Q-376" value="SALIDA&lt;br&gt;PWM" style="text;html=1;align=center;verticalAlign=middle;resizable=0;points=[];autosize=1;strokeColor=none;fillColor=none;" vertex="1" parent="1">
          <mxGeometry x="1970" y="1415" width="65" height="45" as="geometry" />
        </mxCell>
        <mxCell id="3lKRfwnc0ouoPAwV5v7Q-377" value="CKT.&lt;br&gt;PROT.&lt;br&gt;ESD" style="rounded=0;whiteSpace=wrap;html=1;" vertex="1" parent="1">
          <mxGeometry x="1880" y="1440" width="80" height="80" as="geometry" />
        </mxCell>
        <mxCell id="3lKRfwnc0ouoPAwV5v7Q-378" style="edgeStyle=orthogonalEdgeStyle;rounded=0;orthogonalLoop=1;jettySize=auto;html=1;exitX=1;exitY=0.5;exitDx=0;exitDy=0;entryX=1;entryY=0.25;entryDx=0;entryDy=0;entryPerimeter=0;" edge="1" parent="1" source="3lKRfwnc0ouoPAwV5v7Q-377" target="3lKRfwnc0ouoPAwV5v7Q-375">
          <mxGeometry relative="1" as="geometry" />
        </mxCell>
        <mxCell id="3lKRfwnc0ouoPAwV5v7Q-379" style="edgeStyle=orthogonalEdgeStyle;rounded=0;orthogonalLoop=1;jettySize=auto;html=1;exitX=1;exitY=0.5;exitDx=0;exitDy=0;entryX=0;entryY=0.5;entryDx=0;entryDy=0;" edge="1" parent="1" source="3lKRfwnc0ouoPAwV5v7Q-380" target="3lKRfwnc0ouoPAwV5v7Q-377">
          <mxGeometry relative="1" as="geometry" />
        </mxCell>
        <mxCell id="3lKRfwnc0ouoPAwV5v7Q-380" value="CKT.&lt;br&gt;PROT.&lt;br&gt;C.C." style="rounded=0;whiteSpace=wrap;html=1;" vertex="1" parent="1">
          <mxGeometry x="1760" y="1440" width="80" height="80" as="geometry" />
        </mxCell>
        <mxCell id="3lKRfwnc0ouoPAwV5v7Q-384" style="edgeStyle=orthogonalEdgeStyle;rounded=0;orthogonalLoop=1;jettySize=auto;html=1;exitX=1;exitY=0.5;exitDx=0;exitDy=0;entryX=0;entryY=0.5;entryDx=0;entryDy=0;" edge="1" parent="1" target="3lKRfwnc0ouoPAwV5v7Q-380">
          <mxGeometry relative="1" as="geometry">
            <mxPoint x="1720" y="1480" as="sourcePoint" />
          </mxGeometry>
        </mxCell>
        <mxCell id="3lKRfwnc0ouoPAwV5v7Q-386" style="edgeStyle=orthogonalEdgeStyle;rounded=0;orthogonalLoop=1;jettySize=auto;html=1;exitX=1;exitY=0.5;exitDx=0;exitDy=0;entryX=0;entryY=0.5;entryDx=0;entryDy=0;" edge="1" parent="1" source="3lKRfwnc0ouoPAwV5v7Q-387">
          <mxGeometry relative="1" as="geometry">
            <mxPoint x="1660" y="1480" as="targetPoint" />
          </mxGeometry>
        </mxCell>
        <mxCell id="3lKRfwnc0ouoPAwV5v7Q-387" value="CKT.&lt;br&gt;PROT.&lt;br&gt;C.LIM." style="rounded=0;whiteSpace=wrap;html=1;" vertex="1" parent="1">
          <mxGeometry x="1540" y="1440" width="80" height="80" as="geometry" />
        </mxCell>
        <mxCell id="3lKRfwnc0ouoPAwV5v7Q-389" value="SALIDA DIGITIAL D1" style="text;html=1;align=center;verticalAlign=middle;resizable=0;points=[];autosize=1;strokeColor=none;fillColor=none;fontStyle=1;fontSize=14;" vertex="1" parent="1">
          <mxGeometry x="1480" y="1160" width="155" height="35" as="geometry" />
        </mxCell>
        <mxCell id="3lKRfwnc0ouoPAwV5v7Q-390" value="SALIDA DIGITIAL D2" style="text;html=1;align=center;verticalAlign=middle;resizable=0;points=[];autosize=1;strokeColor=none;fillColor=none;fontStyle=1;fontSize=14;" vertex="1" parent="1">
          <mxGeometry x="1480" y="1380" width="155" height="35" as="geometry" />
        </mxCell>
        <mxCell id="3lKRfwnc0ouoPAwV5v7Q-391" value="PWM0" style="text;html=1;align=center;verticalAlign=middle;resizable=0;points=[];autosize=1;strokeColor=none;fillColor=none;" vertex="1" parent="1">
          <mxGeometry x="1335" y="585" width="55" height="30" as="geometry" />
        </mxCell>
        <mxCell id="3lKRfwnc0ouoPAwV5v7Q-392" value="PWM1" style="text;html=1;align=center;verticalAlign=middle;resizable=0;points=[];autosize=1;strokeColor=none;fillColor=none;" vertex="1" parent="1">
          <mxGeometry x="1335" y="805" width="55" height="30" as="geometry" />
        </mxCell>
        <mxCell id="3lKRfwnc0ouoPAwV5v7Q-393" value="OUT_D0" style="text;html=1;align=center;verticalAlign=middle;resizable=0;points=[];autosize=1;strokeColor=none;fillColor=none;" vertex="1" parent="1">
          <mxGeometry x="1328" y="1025" width="70" height="30" as="geometry" />
        </mxCell>
        <mxCell id="3lKRfwnc0ouoPAwV5v7Q-394" value="OUT_D1" style="text;html=1;align=center;verticalAlign=middle;resizable=0;points=[];autosize=1;strokeColor=none;fillColor=none;" vertex="1" parent="1">
          <mxGeometry x="1325" y="1245" width="70" height="30" as="geometry" />
        </mxCell>
        <mxCell id="3lKRfwnc0ouoPAwV5v7Q-395" value="OUT_D2" style="text;html=1;align=center;verticalAlign=middle;resizable=0;points=[];autosize=1;strokeColor=none;fillColor=none;" vertex="1" parent="1">
          <mxGeometry x="1325" y="1465" width="70" height="30" as="geometry" />
        </mxCell>
        <mxCell id="3lKRfwnc0ouoPAwV5v7Q-396" value="MCU" style="text;html=1;align=center;verticalAlign=middle;resizable=0;points=[];autosize=1;strokeColor=none;fillColor=none;fontSize=60;fontStyle=1" vertex="1" parent="1">
          <mxGeometry x="1183" y="668" width="160" height="90" as="geometry" />
        </mxCell>
        <mxCell id="3lKRfwnc0ouoPAwV5v7Q-397" value="&lt;font style=&quot;font-size: 12px;&quot;&gt;&lt;b&gt;V&lt;sub style=&quot;&quot;&gt;OFFSET&lt;/sub&gt;&lt;/b&gt;&lt;/font&gt;" style="verticalLabelPosition=top;verticalAlign=bottom;shape=mxgraph.electrical.signal_sources.vdd;shadow=0;dashed=0;align=center;strokeWidth=1;fontSize=24;html=1;flipV=1;" vertex="1" parent="1">
          <mxGeometry x="837.5" y="760" width="45" height="20" as="geometry" />
        </mxCell>
        <mxCell id="6sdn03XjU-XbY_COcO21-3" style="edgeStyle=orthogonalEdgeStyle;rounded=0;orthogonalLoop=1;jettySize=auto;html=1;entryX=0;entryY=0.5;entryDx=0;entryDy=0;" edge="1" parent="1" target="6sdn03XjU-XbY_COcO21-8">
          <mxGeometry relative="1" as="geometry">
            <mxPoint x="690" y="2061.12" as="sourcePoint" />
          </mxGeometry>
        </mxCell>
        <mxCell id="6sdn03XjU-XbY_COcO21-21" value="SDIN" style="edgeLabel;html=1;align=center;verticalAlign=middle;resizable=0;points=[];" connectable="0" vertex="1" parent="6sdn03XjU-XbY_COcO21-3">
          <mxGeometry x="-0.4613" relative="1" as="geometry">
            <mxPoint x="-126" y="-10" as="offset" />
          </mxGeometry>
        </mxCell>
        <mxCell id="6sdn03XjU-XbY_COcO21-9" style="edgeStyle=orthogonalEdgeStyle;rounded=0;orthogonalLoop=1;jettySize=auto;html=1;exitX=1;exitY=0.5;exitDx=0;exitDy=0;entryX=0.5;entryY=1;entryDx=0;entryDy=0;" edge="1" parent="1" source="6sdn03XjU-XbY_COcO21-8" target="6sdn03XjU-XbY_COcO21-11">
          <mxGeometry relative="1" as="geometry">
            <mxPoint x="870" y="2061.12" as="targetPoint" />
          </mxGeometry>
        </mxCell>
        <mxCell id="6sdn03XjU-XbY_COcO21-8" value="&lt;b&gt;&lt;i&gt;&amp;nbsp; TTL&lt;/i&gt;&lt;/b&gt;" style="triangle;whiteSpace=wrap;html=1;align=left;" vertex="1" parent="1">
          <mxGeometry x="730" y="2031.12" width="60" height="60" as="geometry" />
        </mxCell>
        <mxCell id="6sdn03XjU-XbY_COcO21-16" style="edgeStyle=orthogonalEdgeStyle;rounded=0;orthogonalLoop=1;jettySize=auto;html=1;exitX=0.5;exitY=0;exitDx=0;exitDy=0;exitPerimeter=0;entryX=1;entryY=0.5;entryDx=0;entryDy=0;endArrow=none;startFill=0;" edge="1" parent="1" source="6sdn03XjU-XbY_COcO21-13" target="6sdn03XjU-XbY_COcO21-10">
          <mxGeometry relative="1" as="geometry">
            <Array as="points">
              <mxPoint x="935" y="2061.12" />
            </Array>
          </mxGeometry>
        </mxCell>
        <mxCell id="6sdn03XjU-XbY_COcO21-13" value="&lt;font style=&quot;font-size: 12px;&quot;&gt;+3V3&lt;/font&gt;" style="verticalLabelPosition=top;verticalAlign=bottom;shape=mxgraph.electrical.signal_sources.vdd;shadow=0;dashed=0;align=center;strokeWidth=1;fontSize=24;html=1;flipV=1;spacingTop=0;" vertex="1" parent="1">
          <mxGeometry x="925" y="2001.12" width="20" height="15" as="geometry" />
        </mxCell>
        <mxCell id="6sdn03XjU-XbY_COcO21-15" style="edgeStyle=orthogonalEdgeStyle;rounded=0;orthogonalLoop=1;jettySize=auto;html=1;exitX=0.5;exitY=0;exitDx=0;exitDy=0;exitPerimeter=0;entryX=0.5;entryY=1;entryDx=0;entryDy=0;endArrow=none;startFill=0;" edge="1" parent="1" source="6sdn03XjU-XbY_COcO21-14" target="6sdn03XjU-XbY_COcO21-11">
          <mxGeometry relative="1" as="geometry">
            <Array as="points">
              <mxPoint x="900" y="2061.12" />
              <mxPoint x="870" y="2061.12" />
              <mxPoint x="870" y="2061.12" />
            </Array>
          </mxGeometry>
        </mxCell>
        <mxCell id="6sdn03XjU-XbY_COcO21-14" value="&lt;font style=&quot;font-size: 12px;&quot;&gt;TTL&lt;/font&gt;" style="verticalLabelPosition=top;verticalAlign=bottom;shape=mxgraph.electrical.signal_sources.vdd;shadow=0;dashed=0;align=center;strokeWidth=1;fontSize=24;html=1;flipV=1;spacingTop=0;" vertex="1" parent="1">
          <mxGeometry x="890" y="2001.12" width="20" height="20" as="geometry" />
        </mxCell>
        <mxCell id="6sdn03XjU-XbY_COcO21-22" style="edgeStyle=orthogonalEdgeStyle;rounded=0;orthogonalLoop=1;jettySize=auto;html=1;exitX=1;exitY=0.5;exitDx=0;exitDy=0;entryX=0.021;entryY=0.49;entryDx=0;entryDy=0;entryPerimeter=0;" edge="1" parent="1" source="6sdn03XjU-XbY_COcO21-10" target="1Z2X5GZ7vUzWExn99gd6-54">
          <mxGeometry relative="1" as="geometry">
            <mxPoint x="1190" y="1961.12" as="targetPoint" />
          </mxGeometry>
        </mxCell>
        <mxCell id="6sdn03XjU-XbY_COcO21-23" value="SDIN_uC" style="edgeLabel;html=1;align=center;verticalAlign=middle;resizable=0;points=[];rotation=-90;" connectable="0" vertex="1" parent="6sdn03XjU-XbY_COcO21-22">
          <mxGeometry x="0.6873" y="-3" relative="1" as="geometry">
            <mxPoint x="-16" y="-16" as="offset" />
          </mxGeometry>
        </mxCell>
        <mxCell id="6sdn03XjU-XbY_COcO21-10" value="" style="triangle;whiteSpace=wrap;html=1;" vertex="1" parent="1">
          <mxGeometry x="920" y="2046.12" width="30" height="30" as="geometry" />
        </mxCell>
        <mxCell id="6sdn03XjU-XbY_COcO21-11" value="" style="shape=trapezoid;perimeter=trapezoidPerimeter;whiteSpace=wrap;html=1;fixedSize=1;rotation=90;size=10.969999999999914;" vertex="1" parent="1">
          <mxGeometry x="870" y="2050.92" width="58.56" height="20.41" as="geometry" />
        </mxCell>
        <mxCell id="6sdn03XjU-XbY_COcO21-17" value="" style="endArrow=none;dashed=1;html=1;rounded=0;strokeWidth=2;" edge="1" parent="1">
          <mxGeometry width="50" height="50" relative="1" as="geometry">
            <mxPoint x="915" y="2096.12" as="sourcePoint" />
            <mxPoint x="915" y="2026.12" as="targetPoint" />
          </mxGeometry>
        </mxCell>
        <mxCell id="6sdn03XjU-XbY_COcO21-18" value="BUFFER&lt;br&gt;TTL" style="text;html=1;align=center;verticalAlign=middle;resizable=0;points=[];autosize=1;strokeColor=none;fillColor=none;" vertex="1" parent="1">
          <mxGeometry x="719.28" y="1988.62" width="70" height="45" as="geometry" />
        </mxCell>
        <mxCell id="6sdn03XjU-XbY_COcO21-20" value="&lt;span style=&quot;color: rgba(0, 0, 0, 0); font-family: monospace; font-size: 0px; text-align: start;&quot;&gt;%3CmxGraphModel%3E%3Croot%3E%3CmxCell%20id%3D%220%22%2F%3E%3CmxCell%20id%3D%221%22%20parent%3D%220%22%2F%3E%3CmxCell%20id%3D%222%22%20value%3D%22LEVEL%26amp%3Bnbsp%3B%20TRANS.%26lt%3Bbr%26gt%3BAISLADO%22%20style%3D%22text%3Bhtml%3D1%3Balign%3Dcenter%3BverticalAlign%3Dmiddle%3Bresizable%3D0%3Bpoints%3D%5B%5D%3Bautosize%3D1%3BstrokeColor%3Dnone%3BfillColor%3Dnone%3B%22%20vertex%3D%221%22%20parent%3D%221%22%3E%3CmxGeometry%20x%3D%22863.56%22%20y%3D%221515%22%20width%3D%22110%22%20height%3D%2245%22%20as%3D%22geometry%22%2F%3E%3C%2FmxCell%3E%3C%2Froot%3E%3C%2FmxGraphModel%3E&lt;/span&gt;" style="text;html=1;align=center;verticalAlign=middle;resizable=0;points=[];autosize=1;strokeColor=none;fillColor=none;" vertex="1" parent="1">
          <mxGeometry x="905" y="2106.12" width="20" height="30" as="geometry" />
        </mxCell>
        <mxCell id="6sdn03XjU-XbY_COcO21-41" value="&lt;i&gt;&lt;b&gt;TTL&amp;nbsp; &amp;nbsp;&lt;/b&gt;&lt;/i&gt;" style="triangle;whiteSpace=wrap;html=1;flipH=1;align=right;" vertex="1" parent="1">
          <mxGeometry x="730" y="2211.12" width="60" height="60" as="geometry" />
        </mxCell>
        <mxCell id="6sdn03XjU-XbY_COcO21-52" style="edgeStyle=orthogonalEdgeStyle;rounded=0;orthogonalLoop=1;jettySize=auto;html=1;exitX=0.5;exitY=0;exitDx=0;exitDy=0;exitPerimeter=0;entryX=0.5;entryY=1;entryDx=0;entryDy=0;" edge="1" parent="1" source="6sdn03XjU-XbY_COcO21-43" target="6sdn03XjU-XbY_COcO21-47">
          <mxGeometry relative="1" as="geometry">
            <Array as="points">
              <mxPoint x="940" y="2241.12" />
            </Array>
          </mxGeometry>
        </mxCell>
        <mxCell id="6sdn03XjU-XbY_COcO21-43" value="&lt;font style=&quot;font-size: 12px;&quot;&gt;+3V3&lt;/font&gt;" style="verticalLabelPosition=top;verticalAlign=bottom;shape=mxgraph.electrical.signal_sources.vdd;shadow=0;dashed=0;align=center;strokeWidth=1;fontSize=24;html=1;flipV=1;spacingTop=0;" vertex="1" parent="1">
          <mxGeometry x="930" y="2181.12" width="20" height="15" as="geometry" />
        </mxCell>
        <mxCell id="6sdn03XjU-XbY_COcO21-51" style="edgeStyle=orthogonalEdgeStyle;rounded=0;orthogonalLoop=1;jettySize=auto;html=1;exitX=0.5;exitY=0;exitDx=0;exitDy=0;exitPerimeter=0;entryX=0;entryY=0.5;entryDx=0;entryDy=0;" edge="1" parent="1" source="6sdn03XjU-XbY_COcO21-45" target="6sdn03XjU-XbY_COcO21-46">
          <mxGeometry relative="1" as="geometry">
            <Array as="points">
              <mxPoint x="903.28" y="2241.12" />
            </Array>
          </mxGeometry>
        </mxCell>
        <mxCell id="6sdn03XjU-XbY_COcO21-45" value="&lt;font style=&quot;font-size: 12px;&quot;&gt;TTL&lt;/font&gt;" style="verticalLabelPosition=top;verticalAlign=bottom;shape=mxgraph.electrical.signal_sources.vdd;shadow=0;dashed=0;align=center;strokeWidth=1;fontSize=24;html=1;flipV=1;spacingTop=0;" vertex="1" parent="1">
          <mxGeometry x="892.5" y="2181.12" width="20" height="15" as="geometry" />
        </mxCell>
        <mxCell id="6sdn03XjU-XbY_COcO21-53" style="edgeStyle=orthogonalEdgeStyle;rounded=0;orthogonalLoop=1;jettySize=auto;html=1;exitX=0;exitY=0.5;exitDx=0;exitDy=0;entryX=1;entryY=0.5;entryDx=0;entryDy=0;" edge="1" parent="1" source="6sdn03XjU-XbY_COcO21-46" target="6sdn03XjU-XbY_COcO21-41">
          <mxGeometry relative="1" as="geometry" />
        </mxCell>
        <mxCell id="6sdn03XjU-XbY_COcO21-46" value="" style="triangle;whiteSpace=wrap;html=1;flipH=1;" vertex="1" parent="1">
          <mxGeometry x="888.56" y="2226.12" width="30" height="30" as="geometry" />
        </mxCell>
        <mxCell id="6sdn03XjU-XbY_COcO21-47" value="" style="shape=trapezoid;perimeter=trapezoidPerimeter;whiteSpace=wrap;html=1;fixedSize=1;rotation=90;size=10.969999999999914;flipH=0;direction=west;" vertex="1" parent="1">
          <mxGeometry x="909.28" y="2230.92" width="58.56" height="20.41" as="geometry" />
        </mxCell>
        <mxCell id="6sdn03XjU-XbY_COcO21-48" value="" style="endArrow=none;dashed=1;html=1;rounded=0;strokeWidth=2;" edge="1" parent="1">
          <mxGeometry width="50" height="50" relative="1" as="geometry">
            <mxPoint x="924.28" y="2266.12" as="sourcePoint" />
            <mxPoint x="924.28" y="2196.12" as="targetPoint" />
          </mxGeometry>
        </mxCell>
        <mxCell id="6sdn03XjU-XbY_COcO21-49" value="BUFFER&lt;br&gt;TTL" style="text;html=1;align=center;verticalAlign=middle;resizable=0;points=[];autosize=1;strokeColor=none;fillColor=none;" vertex="1" parent="1">
          <mxGeometry x="719.28" y="2171.12" width="70" height="45" as="geometry" />
        </mxCell>
        <mxCell id="6sdn03XjU-XbY_COcO21-56" value="CKT.&lt;br&gt;PROT.&lt;br&gt;ESD" style="rounded=0;whiteSpace=wrap;html=1;" vertex="1" parent="1">
          <mxGeometry x="610" y="2021.12" width="80" height="80" as="geometry" />
        </mxCell>
        <mxCell id="6sdn03XjU-XbY_COcO21-59" style="edgeStyle=orthogonalEdgeStyle;rounded=0;orthogonalLoop=1;jettySize=auto;html=1;exitX=1;exitY=0.25;exitDx=0;exitDy=0;entryX=0;entryY=0.5;entryDx=0;entryDy=0;" edge="1" parent="1" source="6sdn03XjU-XbY_COcO21-57" target="6sdn03XjU-XbY_COcO21-56">
          <mxGeometry relative="1" as="geometry">
            <Array as="points">
              <mxPoint x="470" y="2061.12" />
            </Array>
          </mxGeometry>
        </mxCell>
        <mxCell id="6sdn03XjU-XbY_COcO21-57" value="TTL&lt;br&gt;SERIAL&lt;br&gt;PORT&lt;br&gt;COMM" style="rounded=0;whiteSpace=wrap;html=1;" vertex="1" parent="1">
          <mxGeometry x="390" y="2001.12" width="80" height="280" as="geometry" />
        </mxCell>
        <mxCell id="6sdn03XjU-XbY_COcO21-58" style="edgeStyle=orthogonalEdgeStyle;rounded=0;orthogonalLoop=1;jettySize=auto;html=1;exitX=0;exitY=0.5;exitDx=0;exitDy=0;" edge="1" parent="1" source="6sdn03XjU-XbY_COcO21-41">
          <mxGeometry relative="1" as="geometry">
            <mxPoint x="471" y="2241.12" as="targetPoint" />
            <Array as="points">
              <mxPoint x="471" y="2241.12" />
            </Array>
          </mxGeometry>
        </mxCell>
        <mxCell id="6sdn03XjU-XbY_COcO21-60" value="TX" style="text;html=1;align=center;verticalAlign=middle;resizable=0;points=[];autosize=1;strokeColor=none;fillColor=none;" vertex="1" parent="1">
          <mxGeometry x="435" y="2046.12" width="35" height="30" as="geometry" />
        </mxCell>
        <mxCell id="6sdn03XjU-XbY_COcO21-62" value="RX" style="text;html=1;align=center;verticalAlign=middle;resizable=0;points=[];autosize=1;strokeColor=none;fillColor=none;" vertex="1" parent="1">
          <mxGeometry x="430" y="2226.12" width="40" height="30" as="geometry" />
        </mxCell>
        <mxCell id="6sdn03XjU-XbY_COcO21-63" value="UART_A" style="text;html=1;align=center;verticalAlign=middle;resizable=0;points=[];autosize=1;strokeColor=none;fillColor=none;fontSize=20;fontStyle=1" vertex="1" parent="1">
          <mxGeometry x="380" y="1961.12" width="100" height="40" as="geometry" />
        </mxCell>
        <mxCell id="6sdn03XjU-XbY_COcO21-64" value="CKT.&lt;br&gt;PROT.&lt;br&gt;ESD&lt;br&gt;CC" style="rounded=0;whiteSpace=wrap;html=1;" vertex="1" parent="1">
          <mxGeometry x="610" y="2201.13" width="80" height="80" as="geometry" />
        </mxCell>
        <mxCell id="6sdn03XjU-XbY_COcO21-65" value="SDOUT" style="edgeLabel;html=1;align=center;verticalAlign=middle;resizable=0;points=[];" connectable="0" vertex="1" parent="1">
          <mxGeometry x="579.8302639655612" y="2121.1178634277517" as="geometry">
            <mxPoint x="-3" y="151" as="offset" />
          </mxGeometry>
        </mxCell>
        <mxCell id="6sdn03XjU-XbY_COcO21-66" value="UART_A: RX_MCU" style="text;html=1;align=center;verticalAlign=middle;resizable=0;points=[];autosize=1;strokeColor=none;fillColor=none;fontStyle=1;fontSize=14;" vertex="1" parent="1">
          <mxGeometry x="550" y="1961.12" width="145" height="35" as="geometry" />
        </mxCell>
        <mxCell id="6sdn03XjU-XbY_COcO21-67" value="UART_A: TX_MCU" style="text;html=1;align=center;verticalAlign=middle;resizable=0;points=[];autosize=1;strokeColor=none;fillColor=none;fontStyle=1;fontSize=14;" vertex="1" parent="1">
          <mxGeometry x="550" y="2156.12" width="140" height="35" as="geometry" />
        </mxCell>
        <mxCell id="6sdn03XjU-XbY_COcO21-112" style="edgeStyle=orthogonalEdgeStyle;rounded=0;orthogonalLoop=1;jettySize=auto;html=1;exitX=0.5;exitY=0;exitDx=0;exitDy=0;exitPerimeter=0;entryX=1;entryY=0.5;entryDx=0;entryDy=0;endArrow=none;startFill=0;" edge="1" parent="1" source="6sdn03XjU-XbY_COcO21-113" target="6sdn03XjU-XbY_COcO21-116">
          <mxGeometry relative="1" as="geometry">
            <Array as="points">
              <mxPoint x="935" y="2461.12" />
            </Array>
          </mxGeometry>
        </mxCell>
        <mxCell id="6sdn03XjU-XbY_COcO21-113" value="&lt;font style=&quot;font-size: 12px;&quot;&gt;+3V3&lt;/font&gt;" style="verticalLabelPosition=top;verticalAlign=bottom;shape=mxgraph.electrical.signal_sources.vdd;shadow=0;dashed=0;align=center;strokeWidth=1;fontSize=24;html=1;flipV=1;spacingTop=0;" vertex="1" parent="1">
          <mxGeometry x="925" y="2401.12" width="20" height="15" as="geometry" />
        </mxCell>
        <mxCell id="6sdn03XjU-XbY_COcO21-114" style="edgeStyle=orthogonalEdgeStyle;rounded=0;orthogonalLoop=1;jettySize=auto;html=1;exitX=0.5;exitY=0;exitDx=0;exitDy=0;exitPerimeter=0;entryX=0.5;entryY=1;entryDx=0;entryDy=0;endArrow=none;startFill=0;" edge="1" parent="1" source="6sdn03XjU-XbY_COcO21-115" target="6sdn03XjU-XbY_COcO21-117">
          <mxGeometry relative="1" as="geometry">
            <Array as="points">
              <mxPoint x="899" y="2421.12" />
              <mxPoint x="899" y="2461.12" />
            </Array>
          </mxGeometry>
        </mxCell>
        <mxCell id="6sdn03XjU-XbY_COcO21-115" value="&lt;span style=&quot;font-size: 12px;&quot;&gt;TTL&lt;/span&gt;" style="verticalLabelPosition=top;verticalAlign=bottom;shape=mxgraph.electrical.signal_sources.vdd;shadow=0;dashed=0;align=right;strokeWidth=1;fontSize=24;html=1;flipV=1;spacingTop=0;" vertex="1" parent="1">
          <mxGeometry x="889.28" y="2401.12" width="20" height="20" as="geometry" />
        </mxCell>
        <mxCell id="6sdn03XjU-XbY_COcO21-116" value="" style="triangle;whiteSpace=wrap;html=1;" vertex="1" parent="1">
          <mxGeometry x="920" y="2446.12" width="30" height="30" as="geometry" />
        </mxCell>
        <mxCell id="6sdn03XjU-XbY_COcO21-117" value="" style="shape=trapezoid;perimeter=trapezoidPerimeter;whiteSpace=wrap;html=1;fixedSize=1;rotation=90;size=10.969999999999914;" vertex="1" parent="1">
          <mxGeometry x="871.44" y="2450.91" width="58.56" height="20.41" as="geometry" />
        </mxCell>
        <mxCell id="6sdn03XjU-XbY_COcO21-118" value="" style="endArrow=none;dashed=1;html=1;rounded=0;strokeWidth=2;" edge="1" parent="1">
          <mxGeometry width="50" height="50" relative="1" as="geometry">
            <mxPoint x="915" y="2496.13" as="sourcePoint" />
            <mxPoint x="915" y="2426.13" as="targetPoint" />
          </mxGeometry>
        </mxCell>
        <mxCell id="6sdn03XjU-XbY_COcO21-143" style="edgeStyle=orthogonalEdgeStyle;rounded=0;orthogonalLoop=1;jettySize=auto;html=1;exitX=0.5;exitY=0;exitDx=0;exitDy=0;exitPerimeter=0;entryX=0.5;entryY=1;entryDx=0;entryDy=0;" edge="1" parent="1" source="6sdn03XjU-XbY_COcO21-123" target="6sdn03XjU-XbY_COcO21-128">
          <mxGeometry relative="1" as="geometry">
            <Array as="points">
              <mxPoint x="937.22" y="2556.12" />
              <mxPoint x="938.22" y="2556.12" />
              <mxPoint x="938.22" y="2586.12" />
              <mxPoint x="937.22" y="2586.12" />
              <mxPoint x="937.22" y="2581.12" />
            </Array>
          </mxGeometry>
        </mxCell>
        <mxCell id="6sdn03XjU-XbY_COcO21-123" value="&lt;font style=&quot;font-size: 12px;&quot;&gt;+3V3&lt;/font&gt;" style="verticalLabelPosition=top;verticalAlign=bottom;shape=mxgraph.electrical.signal_sources.vdd;shadow=0;dashed=0;align=center;strokeWidth=1;fontSize=24;html=1;flipV=1;spacingTop=0;" vertex="1" parent="1">
          <mxGeometry x="927.5" y="2521.12" width="20" height="15" as="geometry" />
        </mxCell>
        <mxCell id="6sdn03XjU-XbY_COcO21-145" style="edgeStyle=orthogonalEdgeStyle;rounded=0;orthogonalLoop=1;jettySize=auto;html=1;exitX=0.5;exitY=0;exitDx=0;exitDy=0;exitPerimeter=0;entryX=0;entryY=0.5;entryDx=0;entryDy=0;" edge="1" parent="1" source="6sdn03XjU-XbY_COcO21-125" target="6sdn03XjU-XbY_COcO21-127">
          <mxGeometry relative="1" as="geometry">
            <Array as="points">
              <mxPoint x="902.22" y="2556.12" />
              <mxPoint x="903.22" y="2556.12" />
              <mxPoint x="903.22" y="2581.12" />
            </Array>
          </mxGeometry>
        </mxCell>
        <mxCell id="6sdn03XjU-XbY_COcO21-125" value="&lt;span style=&quot;font-size: 12px;&quot;&gt;TTL&lt;/span&gt;" style="verticalLabelPosition=top;verticalAlign=bottom;shape=mxgraph.electrical.signal_sources.vdd;shadow=0;dashed=0;align=right;strokeWidth=1;fontSize=24;html=1;flipV=1;spacingTop=0;" vertex="1" parent="1">
          <mxGeometry x="892.5" y="2521.12" width="20" height="15" as="geometry" />
        </mxCell>
        <mxCell id="1Z2X5GZ7vUzWExn99gd6-5" style="edgeStyle=orthogonalEdgeStyle;rounded=0;orthogonalLoop=1;jettySize=auto;html=1;exitX=0;exitY=0.5;exitDx=0;exitDy=0;entryX=1;entryY=0.75;entryDx=0;entryDy=0;" edge="1" parent="1" source="6sdn03XjU-XbY_COcO21-127" target="1Z2X5GZ7vUzWExn99gd6-1">
          <mxGeometry relative="1" as="geometry">
            <Array as="points">
              <mxPoint x="830" y="2581.12" />
              <mxPoint x="830" y="2541.12" />
            </Array>
          </mxGeometry>
        </mxCell>
        <mxCell id="1Z2X5GZ7vUzWExn99gd6-7" value="TX" style="edgeLabel;html=1;align=center;verticalAlign=middle;resizable=0;points=[];" connectable="0" vertex="1" parent="1Z2X5GZ7vUzWExn99gd6-5">
          <mxGeometry x="0.6315" relative="1" as="geometry">
            <mxPoint x="-9" y="-10" as="offset" />
          </mxGeometry>
        </mxCell>
        <mxCell id="6sdn03XjU-XbY_COcO21-127" value="" style="triangle;whiteSpace=wrap;html=1;flipH=1;" vertex="1" parent="1">
          <mxGeometry x="888.22" y="2565.71" width="30" height="30" as="geometry" />
        </mxCell>
        <mxCell id="6sdn03XjU-XbY_COcO21-128" value="" style="shape=trapezoid;perimeter=trapezoidPerimeter;whiteSpace=wrap;html=1;fixedSize=1;rotation=90;size=10.969999999999914;flipH=0;direction=west;" vertex="1" parent="1">
          <mxGeometry x="908.2900000000001" y="2571.08" width="58.56" height="20.11" as="geometry" />
        </mxCell>
        <mxCell id="6sdn03XjU-XbY_COcO21-129" value="" style="endArrow=none;dashed=1;html=1;rounded=0;strokeWidth=2;" edge="1" parent="1">
          <mxGeometry width="50" height="50" relative="1" as="geometry">
            <mxPoint x="923.22" y="2606.12" as="sourcePoint" />
            <mxPoint x="923.22" y="2536.12" as="targetPoint" />
          </mxGeometry>
        </mxCell>
        <mxCell id="6sdn03XjU-XbY_COcO21-131" value="LEVEL&amp;nbsp;&lt;br&gt;TRANSLATOR&lt;br&gt;AISLADO" style="text;html=1;align=center;verticalAlign=middle;resizable=0;points=[];autosize=1;strokeColor=none;fillColor=none;" vertex="1" parent="1">
          <mxGeometry x="872.5" y="2611.12" width="100" height="60" as="geometry" />
        </mxCell>
        <mxCell id="6sdn03XjU-XbY_COcO21-134" value="RS-232&lt;br&gt;PORT&lt;br&gt;COMM&lt;br&gt;&lt;br&gt;(MODBUS)" style="rounded=0;whiteSpace=wrap;html=1;" vertex="1" parent="1">
          <mxGeometry x="390" y="2381.12" width="80" height="280" as="geometry" />
        </mxCell>
        <mxCell id="6sdn03XjU-XbY_COcO21-136" value="A" style="text;html=1;align=center;verticalAlign=middle;resizable=0;points=[];autosize=1;strokeColor=none;fillColor=none;" vertex="1" parent="1">
          <mxGeometry x="440" y="2436.12" width="30" height="30" as="geometry" />
        </mxCell>
        <mxCell id="6sdn03XjU-XbY_COcO21-137" value="B" style="text;html=1;align=center;verticalAlign=middle;resizable=0;points=[];autosize=1;strokeColor=none;fillColor=none;" vertex="1" parent="1">
          <mxGeometry x="440" y="2576.12" width="30" height="30" as="geometry" />
        </mxCell>
        <mxCell id="6sdn03XjU-XbY_COcO21-138" value="UART_B" style="text;html=1;align=center;verticalAlign=middle;resizable=0;points=[];autosize=1;strokeColor=none;fillColor=none;fontSize=20;fontStyle=1" vertex="1" parent="1">
          <mxGeometry x="380" y="2341.12" width="100" height="40" as="geometry" />
        </mxCell>
        <mxCell id="6sdn03XjU-XbY_COcO21-141" value="UART_B: RS-485" style="text;html=1;align=center;verticalAlign=middle;resizable=0;points=[];autosize=1;strokeColor=none;fillColor=none;fontStyle=1;fontSize=14;" vertex="1" parent="1">
          <mxGeometry x="550" y="2361.12" width="130" height="35" as="geometry" />
        </mxCell>
        <mxCell id="6sdn03XjU-XbY_COcO21-152" style="edgeStyle=orthogonalEdgeStyle;rounded=0;orthogonalLoop=1;jettySize=auto;html=1;exitX=1;exitY=0.5;exitDx=0;exitDy=0;entryX=-0.045;entryY=0.436;entryDx=0;entryDy=0;entryPerimeter=0;" edge="1" parent="1" source="6sdn03XjU-XbY_COcO21-116" target="1Z2X5GZ7vUzWExn99gd6-56">
          <mxGeometry relative="1" as="geometry">
            <mxPoint x="1300" y="1940" as="targetPoint" />
          </mxGeometry>
        </mxCell>
        <mxCell id="6sdn03XjU-XbY_COcO21-160" value="RS485-IN" style="edgeLabel;html=1;align=center;verticalAlign=middle;resizable=0;points=[];rotation=270;" connectable="0" vertex="1" parent="6sdn03XjU-XbY_COcO21-152">
          <mxGeometry x="0.9136" y="1" relative="1" as="geometry">
            <mxPoint x="-9" y="9" as="offset" />
          </mxGeometry>
        </mxCell>
        <mxCell id="6sdn03XjU-XbY_COcO21-154" value="SDIN_uC" style="edgeLabel;html=1;align=center;verticalAlign=middle;resizable=0;points=[];rotation=0;" connectable="0" vertex="1" parent="1">
          <mxGeometry x="1040.0017149424762" y="2050.9180199931243" as="geometry">
            <mxPoint x="-44" y="1" as="offset" />
          </mxGeometry>
        </mxCell>
        <mxCell id="6sdn03XjU-XbY_COcO21-155" value="SDOUT_uC" style="edgeLabel;html=1;align=center;verticalAlign=middle;resizable=0;points=[];rotation=0;" connectable="0" vertex="1" parent="1">
          <mxGeometry x="1035.0017149424762" y="2230.9180199931243" as="geometry">
            <mxPoint x="-44" y="1" as="offset" />
          </mxGeometry>
        </mxCell>
        <mxCell id="6sdn03XjU-XbY_COcO21-158" value="RS485-IN" style="text;html=1;align=left;verticalAlign=middle;resizable=0;points=[];autosize=1;strokeColor=none;fillColor=none;" vertex="1" parent="1">
          <mxGeometry x="955" y="2436.12" width="75" height="30" as="geometry" />
        </mxCell>
        <mxCell id="6sdn03XjU-XbY_COcO21-161" value="RS485-OUT" style="edgeLabel;html=1;align=center;verticalAlign=middle;resizable=0;points=[];rotation=270;" connectable="0" vertex="1" parent="1">
          <mxGeometry x="1295.0048559709255" y="1909.9987495077662" as="geometry">
            <mxPoint x="18.999999999999993" y="25.000000000000004" as="offset" />
          </mxGeometry>
        </mxCell>
        <mxCell id="6sdn03XjU-XbY_COcO21-162" value="RS485-OUT" style="text;html=1;align=left;verticalAlign=middle;resizable=0;points=[];autosize=1;strokeColor=none;fillColor=none;" vertex="1" parent="1">
          <mxGeometry x="955" y="2556.12" width="85" height="30" as="geometry" />
        </mxCell>
        <mxCell id="1Z2X5GZ7vUzWExn99gd6-3" style="edgeStyle=orthogonalEdgeStyle;rounded=0;orthogonalLoop=1;jettySize=auto;html=1;exitX=1;exitY=0.25;exitDx=0;exitDy=0;entryX=0.5;entryY=1;entryDx=0;entryDy=0;" edge="1" parent="1" source="1Z2X5GZ7vUzWExn99gd6-1" target="6sdn03XjU-XbY_COcO21-117">
          <mxGeometry relative="1" as="geometry">
            <Array as="points">
              <mxPoint x="830" y="2501.12" />
              <mxPoint x="830" y="2461.12" />
            </Array>
          </mxGeometry>
        </mxCell>
        <mxCell id="1Z2X5GZ7vUzWExn99gd6-6" value="RX" style="edgeLabel;html=1;align=center;verticalAlign=middle;resizable=0;points=[];" connectable="0" vertex="1" parent="1Z2X5GZ7vUzWExn99gd6-3">
          <mxGeometry x="-0.7661" y="1" relative="1" as="geometry">
            <mxPoint x="3" y="-9" as="offset" />
          </mxGeometry>
        </mxCell>
        <mxCell id="1Z2X5GZ7vUzWExn99gd6-9" style="edgeStyle=orthogonalEdgeStyle;rounded=0;orthogonalLoop=1;jettySize=auto;html=1;exitX=0;exitY=0.25;exitDx=0;exitDy=0;entryX=1;entryY=0.25;entryDx=0;entryDy=0;" edge="1" parent="1" source="1Z2X5GZ7vUzWExn99gd6-1" target="1Z2X5GZ7vUzWExn99gd6-8">
          <mxGeometry relative="1" as="geometry" />
        </mxCell>
        <mxCell id="1Z2X5GZ7vUzWExn99gd6-13" value="A&#39;" style="edgeLabel;html=1;align=center;verticalAlign=middle;resizable=0;points=[];" connectable="0" vertex="1" parent="1Z2X5GZ7vUzWExn99gd6-9">
          <mxGeometry x="-0.091" y="-2" relative="1" as="geometry">
            <mxPoint x="-2" y="-8" as="offset" />
          </mxGeometry>
        </mxCell>
        <mxCell id="1Z2X5GZ7vUzWExn99gd6-10" style="edgeStyle=orthogonalEdgeStyle;rounded=0;orthogonalLoop=1;jettySize=auto;html=1;exitX=0;exitY=0.75;exitDx=0;exitDy=0;entryX=1;entryY=0.75;entryDx=0;entryDy=0;" edge="1" parent="1" source="1Z2X5GZ7vUzWExn99gd6-1" target="1Z2X5GZ7vUzWExn99gd6-8">
          <mxGeometry relative="1" as="geometry" />
        </mxCell>
        <mxCell id="1Z2X5GZ7vUzWExn99gd6-14" value="B&#39;" style="edgeLabel;html=1;align=center;verticalAlign=middle;resizable=0;points=[];" connectable="0" vertex="1" parent="1Z2X5GZ7vUzWExn99gd6-10">
          <mxGeometry x="0.0926" y="1" relative="1" as="geometry">
            <mxPoint x="2" y="-11" as="offset" />
          </mxGeometry>
        </mxCell>
        <mxCell id="1Z2X5GZ7vUzWExn99gd6-1" value="CONV.&lt;br&gt;RS485&lt;br&gt;TO&lt;br&gt;TLL" style="rounded=0;whiteSpace=wrap;html=1;" vertex="1" parent="1">
          <mxGeometry x="709.28" y="2481.12" width="80" height="80" as="geometry" />
        </mxCell>
        <mxCell id="1Z2X5GZ7vUzWExn99gd6-15" style="edgeStyle=orthogonalEdgeStyle;rounded=0;orthogonalLoop=1;jettySize=auto;html=1;exitX=0;exitY=0.25;exitDx=0;exitDy=0;entryX=1;entryY=0.25;entryDx=0;entryDy=0;" edge="1" parent="1" source="1Z2X5GZ7vUzWExn99gd6-8" target="6sdn03XjU-XbY_COcO21-134">
          <mxGeometry relative="1" as="geometry">
            <Array as="points">
              <mxPoint x="510" y="2501.12" />
              <mxPoint x="510" y="2451.12" />
            </Array>
          </mxGeometry>
        </mxCell>
        <mxCell id="1Z2X5GZ7vUzWExn99gd6-17" value="A" style="edgeLabel;html=1;align=center;verticalAlign=middle;resizable=0;points=[];" connectable="0" vertex="1" parent="1Z2X5GZ7vUzWExn99gd6-15">
          <mxGeometry x="-0.7142" y="-1" relative="1" as="geometry">
            <mxPoint x="3" y="-9" as="offset" />
          </mxGeometry>
        </mxCell>
        <mxCell id="1Z2X5GZ7vUzWExn99gd6-16" style="edgeStyle=orthogonalEdgeStyle;rounded=0;orthogonalLoop=1;jettySize=auto;html=1;exitX=0;exitY=0.75;exitDx=0;exitDy=0;entryX=1;entryY=0.75;entryDx=0;entryDy=0;" edge="1" parent="1" source="1Z2X5GZ7vUzWExn99gd6-8" target="6sdn03XjU-XbY_COcO21-134">
          <mxGeometry relative="1" as="geometry">
            <Array as="points">
              <mxPoint x="510" y="2541.12" />
              <mxPoint x="510" y="2591.12" />
            </Array>
          </mxGeometry>
        </mxCell>
        <mxCell id="1Z2X5GZ7vUzWExn99gd6-18" value="B" style="edgeLabel;html=1;align=center;verticalAlign=middle;resizable=0;points=[];" connectable="0" vertex="1" parent="1Z2X5GZ7vUzWExn99gd6-16">
          <mxGeometry x="-0.7" y="3" relative="1" as="geometry">
            <mxPoint x="15" y="-13" as="offset" />
          </mxGeometry>
        </mxCell>
        <mxCell id="1Z2X5GZ7vUzWExn99gd6-8" value="CKT.&lt;br&gt;PROT.&lt;br&gt;ESD&lt;br&gt;CC" style="rounded=0;whiteSpace=wrap;html=1;" vertex="1" parent="1">
          <mxGeometry x="589.28" y="2481.12" width="80" height="80" as="geometry" />
        </mxCell>
        <mxCell id="1Z2X5GZ7vUzWExn99gd6-19" style="edgeStyle=orthogonalEdgeStyle;rounded=0;orthogonalLoop=1;jettySize=auto;html=1;exitX=1;exitY=0.5;exitDx=0;exitDy=0;entryX=0.5;entryY=1;entryDx=0;entryDy=0;" edge="1" parent="1" source="1Z2X5GZ7vUzWExn99gd6-20" target="1Z2X5GZ7vUzWExn99gd6-26">
          <mxGeometry relative="1" as="geometry">
            <mxPoint x="880" y="1480" as="targetPoint" />
          </mxGeometry>
        </mxCell>
        <mxCell id="1Z2X5GZ7vUzWExn99gd6-20" value="&lt;b&gt;&lt;i&gt;&amp;nbsp; TTL&lt;/i&gt;&lt;/b&gt;" style="triangle;whiteSpace=wrap;html=1;align=left;" vertex="1" parent="1">
          <mxGeometry x="740" y="1450" width="60" height="60" as="geometry" />
        </mxCell>
        <mxCell id="1Z2X5GZ7vUzWExn99gd6-21" style="edgeStyle=orthogonalEdgeStyle;rounded=0;orthogonalLoop=1;jettySize=auto;html=1;exitX=0.5;exitY=0;exitDx=0;exitDy=0;exitPerimeter=0;entryX=1;entryY=0.5;entryDx=0;entryDy=0;endArrow=none;startFill=0;" edge="1" parent="1" source="1Z2X5GZ7vUzWExn99gd6-22" target="1Z2X5GZ7vUzWExn99gd6-25">
          <mxGeometry relative="1" as="geometry">
            <Array as="points">
              <mxPoint x="945" y="1480" />
            </Array>
          </mxGeometry>
        </mxCell>
        <mxCell id="1Z2X5GZ7vUzWExn99gd6-22" value="&lt;font style=&quot;font-size: 12px;&quot;&gt;+3V3&lt;/font&gt;" style="verticalLabelPosition=top;verticalAlign=bottom;shape=mxgraph.electrical.signal_sources.vdd;shadow=0;dashed=0;align=center;strokeWidth=1;fontSize=24;html=1;flipV=1;spacingTop=0;" vertex="1" parent="1">
          <mxGeometry x="935" y="1420" width="20" height="15" as="geometry" />
        </mxCell>
        <mxCell id="1Z2X5GZ7vUzWExn99gd6-23" style="edgeStyle=orthogonalEdgeStyle;rounded=0;orthogonalLoop=1;jettySize=auto;html=1;exitX=0.5;exitY=0;exitDx=0;exitDy=0;exitPerimeter=0;entryX=0.5;entryY=1;entryDx=0;entryDy=0;endArrow=none;startFill=0;" edge="1" parent="1" source="1Z2X5GZ7vUzWExn99gd6-24" target="1Z2X5GZ7vUzWExn99gd6-26">
          <mxGeometry relative="1" as="geometry">
            <Array as="points">
              <mxPoint x="910" y="1480" />
              <mxPoint x="880" y="1480" />
              <mxPoint x="880" y="1480" />
            </Array>
          </mxGeometry>
        </mxCell>
        <mxCell id="1Z2X5GZ7vUzWExn99gd6-24" value="&lt;font style=&quot;font-size: 12px;&quot;&gt;TTL&lt;/font&gt;" style="verticalLabelPosition=top;verticalAlign=bottom;shape=mxgraph.electrical.signal_sources.vdd;shadow=0;dashed=0;align=center;strokeWidth=1;fontSize=24;html=1;flipV=1;spacingTop=0;" vertex="1" parent="1">
          <mxGeometry x="900" y="1420" width="20" height="20" as="geometry" />
        </mxCell>
        <mxCell id="1Z2X5GZ7vUzWExn99gd6-25" value="" style="triangle;whiteSpace=wrap;html=1;" vertex="1" parent="1">
          <mxGeometry x="930" y="1465" width="30" height="30" as="geometry" />
        </mxCell>
        <mxCell id="1Z2X5GZ7vUzWExn99gd6-26" value="" style="shape=trapezoid;perimeter=trapezoidPerimeter;whiteSpace=wrap;html=1;fixedSize=1;rotation=90;size=10.969999999999914;" vertex="1" parent="1">
          <mxGeometry x="880" y="1469.8" width="58.56" height="20.41" as="geometry" />
        </mxCell>
        <mxCell id="1Z2X5GZ7vUzWExn99gd6-27" value="" style="endArrow=none;dashed=1;html=1;rounded=0;strokeWidth=2;" edge="1" parent="1">
          <mxGeometry width="50" height="50" relative="1" as="geometry">
            <mxPoint x="925" y="1515" as="sourcePoint" />
            <mxPoint x="925" y="1445" as="targetPoint" />
          </mxGeometry>
        </mxCell>
        <mxCell id="1Z2X5GZ7vUzWExn99gd6-28" value="BUFFER&lt;br&gt;TTL" style="text;html=1;align=center;verticalAlign=middle;resizable=0;points=[];autosize=1;strokeColor=none;fillColor=none;" vertex="1" parent="1">
          <mxGeometry x="729.28" y="1407.5" width="70" height="45" as="geometry" />
        </mxCell>
        <mxCell id="1Z2X5GZ7vUzWExn99gd6-29" value="LEVEL&amp;nbsp; TRANS.&lt;br&gt;AISLADO" style="text;html=1;align=center;verticalAlign=middle;resizable=0;points=[];autosize=1;strokeColor=none;fillColor=none;" vertex="1" parent="1">
          <mxGeometry x="863.56" y="1515" width="110" height="45" as="geometry" />
        </mxCell>
        <mxCell id="1Z2X5GZ7vUzWExn99gd6-30" style="edgeStyle=orthogonalEdgeStyle;rounded=0;orthogonalLoop=1;jettySize=auto;html=1;exitX=1;exitY=0.5;exitDx=0;exitDy=0;entryX=0.5;entryY=1;entryDx=0;entryDy=0;" edge="1" parent="1" source="1Z2X5GZ7vUzWExn99gd6-31" target="1Z2X5GZ7vUzWExn99gd6-37">
          <mxGeometry relative="1" as="geometry">
            <mxPoint x="879.28" y="1260" as="targetPoint" />
          </mxGeometry>
        </mxCell>
        <mxCell id="1Z2X5GZ7vUzWExn99gd6-31" value="&lt;b&gt;&lt;i&gt;&amp;nbsp; TTL&lt;/i&gt;&lt;/b&gt;" style="triangle;whiteSpace=wrap;html=1;align=left;" vertex="1" parent="1">
          <mxGeometry x="739.28" y="1230" width="60" height="60" as="geometry" />
        </mxCell>
        <mxCell id="1Z2X5GZ7vUzWExn99gd6-32" style="edgeStyle=orthogonalEdgeStyle;rounded=0;orthogonalLoop=1;jettySize=auto;html=1;exitX=0.5;exitY=0;exitDx=0;exitDy=0;exitPerimeter=0;entryX=1;entryY=0.5;entryDx=0;entryDy=0;endArrow=none;startFill=0;" edge="1" parent="1" source="1Z2X5GZ7vUzWExn99gd6-33" target="1Z2X5GZ7vUzWExn99gd6-36">
          <mxGeometry relative="1" as="geometry">
            <Array as="points">
              <mxPoint x="945" y="1260" />
            </Array>
          </mxGeometry>
        </mxCell>
        <mxCell id="1Z2X5GZ7vUzWExn99gd6-33" value="&lt;font style=&quot;font-size: 12px;&quot;&gt;+3V3&lt;/font&gt;" style="verticalLabelPosition=top;verticalAlign=bottom;shape=mxgraph.electrical.signal_sources.vdd;shadow=0;dashed=0;align=center;strokeWidth=1;fontSize=24;html=1;flipV=1;spacingTop=0;" vertex="1" parent="1">
          <mxGeometry x="935" y="1200" width="20" height="15" as="geometry" />
        </mxCell>
        <mxCell id="1Z2X5GZ7vUzWExn99gd6-34" style="edgeStyle=orthogonalEdgeStyle;rounded=0;orthogonalLoop=1;jettySize=auto;html=1;exitX=0.5;exitY=0;exitDx=0;exitDy=0;exitPerimeter=0;entryX=0.5;entryY=1;entryDx=0;entryDy=0;endArrow=none;startFill=0;" edge="1" parent="1" source="1Z2X5GZ7vUzWExn99gd6-35" target="1Z2X5GZ7vUzWExn99gd6-37">
          <mxGeometry relative="1" as="geometry">
            <Array as="points">
              <mxPoint x="910" y="1260" />
              <mxPoint x="880" y="1260" />
              <mxPoint x="880" y="1260" />
            </Array>
          </mxGeometry>
        </mxCell>
        <mxCell id="1Z2X5GZ7vUzWExn99gd6-35" value="&lt;font style=&quot;font-size: 12px;&quot;&gt;TTL&lt;/font&gt;" style="verticalLabelPosition=top;verticalAlign=bottom;shape=mxgraph.electrical.signal_sources.vdd;shadow=0;dashed=0;align=center;strokeWidth=1;fontSize=24;html=1;flipV=1;spacingTop=0;" vertex="1" parent="1">
          <mxGeometry x="900" y="1200" width="20" height="20" as="geometry" />
        </mxCell>
        <mxCell id="1Z2X5GZ7vUzWExn99gd6-36" value="" style="triangle;whiteSpace=wrap;html=1;" vertex="1" parent="1">
          <mxGeometry x="930" y="1245" width="30" height="30" as="geometry" />
        </mxCell>
        <mxCell id="1Z2X5GZ7vUzWExn99gd6-37" value="" style="shape=trapezoid;perimeter=trapezoidPerimeter;whiteSpace=wrap;html=1;fixedSize=1;rotation=90;size=10.969999999999914;" vertex="1" parent="1">
          <mxGeometry x="880" y="1249.8" width="58.56" height="20.41" as="geometry" />
        </mxCell>
        <mxCell id="1Z2X5GZ7vUzWExn99gd6-38" value="" style="endArrow=none;dashed=1;html=1;rounded=0;strokeWidth=2;" edge="1" parent="1">
          <mxGeometry width="50" height="50" relative="1" as="geometry">
            <mxPoint x="925" y="1295" as="sourcePoint" />
            <mxPoint x="925" y="1225" as="targetPoint" />
          </mxGeometry>
        </mxCell>
        <mxCell id="1Z2X5GZ7vUzWExn99gd6-39" value="BUFFER&lt;br&gt;TTL" style="text;html=1;align=center;verticalAlign=middle;resizable=0;points=[];autosize=1;strokeColor=none;fillColor=none;" vertex="1" parent="1">
          <mxGeometry x="729.28" y="1187.5" width="70" height="45" as="geometry" />
        </mxCell>
        <mxCell id="1Z2X5GZ7vUzWExn99gd6-40" value="LEVEL&amp;nbsp; TRANS.&lt;br&gt;AISLADO" style="text;html=1;align=center;verticalAlign=middle;resizable=0;points=[];autosize=1;strokeColor=none;fillColor=none;" vertex="1" parent="1">
          <mxGeometry x="870" y="1295" width="110" height="45" as="geometry" />
        </mxCell>
        <mxCell id="1Z2X5GZ7vUzWExn99gd6-41" style="edgeStyle=orthogonalEdgeStyle;rounded=0;orthogonalLoop=1;jettySize=auto;html=1;exitX=1;exitY=0.5;exitDx=0;exitDy=0;entryX=0.5;entryY=1;entryDx=0;entryDy=0;" edge="1" parent="1" source="1Z2X5GZ7vUzWExn99gd6-42" target="1Z2X5GZ7vUzWExn99gd6-48">
          <mxGeometry relative="1" as="geometry">
            <mxPoint x="880" y="1040" as="targetPoint" />
          </mxGeometry>
        </mxCell>
        <mxCell id="1Z2X5GZ7vUzWExn99gd6-42" value="&lt;b&gt;&lt;i&gt;&amp;nbsp; TTL&lt;/i&gt;&lt;/b&gt;" style="triangle;whiteSpace=wrap;html=1;align=left;" vertex="1" parent="1">
          <mxGeometry x="740" y="1010" width="60" height="60" as="geometry" />
        </mxCell>
        <mxCell id="1Z2X5GZ7vUzWExn99gd6-43" style="edgeStyle=orthogonalEdgeStyle;rounded=0;orthogonalLoop=1;jettySize=auto;html=1;exitX=0.5;exitY=0;exitDx=0;exitDy=0;exitPerimeter=0;entryX=1;entryY=0.5;entryDx=0;entryDy=0;endArrow=none;startFill=0;" edge="1" parent="1" source="1Z2X5GZ7vUzWExn99gd6-44" target="1Z2X5GZ7vUzWExn99gd6-47">
          <mxGeometry relative="1" as="geometry">
            <Array as="points">
              <mxPoint x="945" y="1040" />
            </Array>
          </mxGeometry>
        </mxCell>
        <mxCell id="1Z2X5GZ7vUzWExn99gd6-44" value="&lt;font style=&quot;font-size: 12px;&quot;&gt;+3V3&lt;/font&gt;" style="verticalLabelPosition=top;verticalAlign=bottom;shape=mxgraph.electrical.signal_sources.vdd;shadow=0;dashed=0;align=center;strokeWidth=1;fontSize=24;html=1;flipV=1;spacingTop=0;" vertex="1" parent="1">
          <mxGeometry x="935" y="980" width="20" height="15" as="geometry" />
        </mxCell>
        <mxCell id="1Z2X5GZ7vUzWExn99gd6-45" style="edgeStyle=orthogonalEdgeStyle;rounded=0;orthogonalLoop=1;jettySize=auto;html=1;exitX=0.5;exitY=0;exitDx=0;exitDy=0;exitPerimeter=0;entryX=0.5;entryY=1;entryDx=0;entryDy=0;endArrow=none;startFill=0;" edge="1" parent="1" source="1Z2X5GZ7vUzWExn99gd6-46" target="1Z2X5GZ7vUzWExn99gd6-48">
          <mxGeometry relative="1" as="geometry">
            <Array as="points">
              <mxPoint x="910" y="1040" />
              <mxPoint x="880" y="1040" />
              <mxPoint x="880" y="1040" />
            </Array>
          </mxGeometry>
        </mxCell>
        <mxCell id="1Z2X5GZ7vUzWExn99gd6-46" value="&lt;font style=&quot;font-size: 12px;&quot;&gt;TTL&lt;/font&gt;" style="verticalLabelPosition=top;verticalAlign=bottom;shape=mxgraph.electrical.signal_sources.vdd;shadow=0;dashed=0;align=center;strokeWidth=1;fontSize=24;html=1;flipV=1;spacingTop=0;" vertex="1" parent="1">
          <mxGeometry x="900" y="980" width="20" height="20" as="geometry" />
        </mxCell>
        <mxCell id="1Z2X5GZ7vUzWExn99gd6-47" value="" style="triangle;whiteSpace=wrap;html=1;" vertex="1" parent="1">
          <mxGeometry x="930" y="1025" width="30" height="30" as="geometry" />
        </mxCell>
        <mxCell id="1Z2X5GZ7vUzWExn99gd6-48" value="" style="shape=trapezoid;perimeter=trapezoidPerimeter;whiteSpace=wrap;html=1;fixedSize=1;rotation=90;size=10.969999999999914;" vertex="1" parent="1">
          <mxGeometry x="880" y="1029.8" width="58.56" height="20.41" as="geometry" />
        </mxCell>
        <mxCell id="1Z2X5GZ7vUzWExn99gd6-49" value="" style="endArrow=none;dashed=1;html=1;rounded=0;strokeWidth=2;" edge="1" parent="1">
          <mxGeometry width="50" height="50" relative="1" as="geometry">
            <mxPoint x="925" y="1075" as="sourcePoint" />
            <mxPoint x="925" y="1005" as="targetPoint" />
          </mxGeometry>
        </mxCell>
        <mxCell id="1Z2X5GZ7vUzWExn99gd6-50" value="BUFFER&lt;br&gt;TTL" style="text;html=1;align=center;verticalAlign=middle;resizable=0;points=[];autosize=1;strokeColor=none;fillColor=none;" vertex="1" parent="1">
          <mxGeometry x="729.28" y="967.5" width="70" height="45" as="geometry" />
        </mxCell>
        <mxCell id="1Z2X5GZ7vUzWExn99gd6-51" value="LEVEL&amp;nbsp; TRANS.&lt;br&gt;AISLADO" style="text;html=1;align=center;verticalAlign=middle;resizable=0;points=[];autosize=1;strokeColor=none;fillColor=none;" vertex="1" parent="1">
          <mxGeometry x="870" y="1075" width="110" height="45" as="geometry" />
        </mxCell>
        <mxCell id="1Z2X5GZ7vUzWExn99gd6-52" value="LEVEL&amp;nbsp; TRANS.&lt;br&gt;AISLADO" style="text;html=1;align=center;verticalAlign=middle;resizable=0;points=[];autosize=1;strokeColor=none;fillColor=none;" vertex="1" parent="1">
          <mxGeometry x="860" y="2096.12" width="110" height="45" as="geometry" />
        </mxCell>
        <mxCell id="1Z2X5GZ7vUzWExn99gd6-53" value="LEVEL&amp;nbsp; TRANS.&lt;br&gt;AISLADO" style="text;html=1;align=center;verticalAlign=middle;resizable=0;points=[];autosize=1;strokeColor=none;fillColor=none;" vertex="1" parent="1">
          <mxGeometry x="870" y="2276.12" width="110" height="45" as="geometry" />
        </mxCell>
        <mxCell id="1Z2X5GZ7vUzWExn99gd6-54" value="UART_A_RX" style="text;html=1;align=center;verticalAlign=middle;resizable=0;points=[];autosize=1;strokeColor=none;fillColor=none;rotation=-90;" vertex="1" parent="1">
          <mxGeometry x="1144" y="1780" width="90" height="30" as="geometry" />
        </mxCell>
        <mxCell id="1Z2X5GZ7vUzWExn99gd6-56" value="UART_B_RX" style="text;html=1;align=center;verticalAlign=middle;resizable=0;points=[];autosize=1;strokeColor=none;fillColor=none;rotation=-90;" vertex="1" parent="1">
          <mxGeometry x="1256" y="1780" width="90" height="30" as="geometry" />
        </mxCell>
        <mxCell id="1Z2X5GZ7vUzWExn99gd6-57" value="UART_A_TX" style="text;html=1;align=center;verticalAlign=middle;resizable=0;points=[];autosize=1;strokeColor=none;fillColor=none;rotation=-90;" vertex="1" parent="1">
          <mxGeometry x="1176" y="1780" width="90" height="30" as="geometry" />
        </mxCell>
        <mxCell id="1Z2X5GZ7vUzWExn99gd6-58" value="UART_A_TX" style="text;html=1;align=center;verticalAlign=middle;resizable=0;points=[];autosize=1;strokeColor=none;fillColor=none;rotation=-90;" vertex="1" parent="1">
          <mxGeometry x="1286" y="1780" width="90" height="30" as="geometry" />
        </mxCell>
        <mxCell id="1Z2X5GZ7vUzWExn99gd6-59" value="STM32" style="text;html=1;align=center;verticalAlign=middle;resizable=0;points=[];autosize=1;strokeColor=none;fillColor=none;fontSize=40;fontStyle=2" vertex="1" parent="1">
          <mxGeometry x="1185.5" y="905" width="150" height="65" as="geometry" />
        </mxCell>
        <mxCell id="RaSThRchthCUQDR3iEfn-5" style="edgeStyle=orthogonalEdgeStyle;rounded=0;orthogonalLoop=1;jettySize=auto;html=1;exitX=1;exitY=0.5;exitDx=0;exitDy=0;entryX=0;entryY=0.5;entryDx=0;entryDy=0;" edge="1" parent="1" source="RaSThRchthCUQDR3iEfn-2" target="RaSThRchthCUQDR3iEfn-4">
          <mxGeometry relative="1" as="geometry" />
        </mxCell>
        <mxCell id="RaSThRchthCUQDR3iEfn-2" value="STEP&lt;br&gt;DOWN&lt;br&gt;PRE-REG.&lt;br&gt;(3V5)" style="rounded=0;whiteSpace=wrap;html=1;" vertex="1" parent="1">
          <mxGeometry x="780" y="300" width="80" height="80" as="geometry" />
        </mxCell>
        <mxCell id="RaSThRchthCUQDR3iEfn-18" style="edgeStyle=orthogonalEdgeStyle;rounded=0;orthogonalLoop=1;jettySize=auto;html=1;exitX=1;exitY=0.5;exitDx=0;exitDy=0;entryX=0;entryY=0.5;entryDx=0;entryDy=0;" edge="1" parent="1" target="RaSThRchthCUQDR3iEfn-7">
          <mxGeometry relative="1" as="geometry">
            <mxPoint x="500.00000000000006" y="400" as="sourcePoint" />
          </mxGeometry>
        </mxCell>
        <mxCell id="RaSThRchthCUQDR3iEfn-6" style="edgeStyle=orthogonalEdgeStyle;rounded=0;orthogonalLoop=1;jettySize=auto;html=1;exitX=1;exitY=0.5;exitDx=0;exitDy=0;entryX=0.5;entryY=0;entryDx=0;entryDy=0;" edge="1" parent="1" source="RaSThRchthCUQDR3iEfn-4" target="3lKRfwnc0ouoPAwV5v7Q-200">
          <mxGeometry relative="1" as="geometry" />
        </mxCell>
        <mxCell id="RaSThRchthCUQDR3iEfn-4" value="LINEAR&lt;br&gt;REG.&lt;br&gt;3V3" style="rounded=0;whiteSpace=wrap;html=1;" vertex="1" parent="1">
          <mxGeometry x="898.56" y="300" width="80" height="80" as="geometry" />
        </mxCell>
        <mxCell id="RaSThRchthCUQDR3iEfn-16" style="edgeStyle=orthogonalEdgeStyle;rounded=0;orthogonalLoop=1;jettySize=auto;html=1;exitX=1;exitY=0.5;exitDx=0;exitDy=0;entryX=0;entryY=0.75;entryDx=0;entryDy=0;" edge="1" parent="1" source="RaSThRchthCUQDR3iEfn-7" target="RaSThRchthCUQDR3iEfn-14">
          <mxGeometry relative="1" as="geometry">
            <Array as="points">
              <mxPoint x="640" y="400" />
              <mxPoint x="640" y="360" />
            </Array>
          </mxGeometry>
        </mxCell>
        <mxCell id="RaSThRchthCUQDR3iEfn-7" value="STEP&lt;br&gt;DOWN&lt;br&gt;CONV." style="rounded=0;whiteSpace=wrap;html=1;" vertex="1" parent="1">
          <mxGeometry x="540" y="360" width="80" height="80" as="geometry" />
        </mxCell>
        <mxCell id="RaSThRchthCUQDR3iEfn-15" style="edgeStyle=orthogonalEdgeStyle;rounded=0;orthogonalLoop=1;jettySize=auto;html=1;exitX=1;exitY=0.5;exitDx=0;exitDy=0;entryX=0;entryY=0.25;entryDx=0;entryDy=0;" edge="1" parent="1" source="RaSThRchthCUQDR3iEfn-10" target="RaSThRchthCUQDR3iEfn-14">
          <mxGeometry relative="1" as="geometry">
            <Array as="points">
              <mxPoint x="640" y="280" />
              <mxPoint x="640" y="320" />
            </Array>
          </mxGeometry>
        </mxCell>
        <mxCell id="RaSThRchthCUQDR3iEfn-10" value="CKT.&lt;br&gt;PROT.&lt;br&gt;POLARIDAD" style="rounded=0;whiteSpace=wrap;html=1;" vertex="1" parent="1">
          <mxGeometry x="539.28" y="240" width="80" height="80" as="geometry" />
        </mxCell>
        <mxCell id="RaSThRchthCUQDR3iEfn-12" style="edgeStyle=orthogonalEdgeStyle;rounded=0;orthogonalLoop=1;jettySize=auto;html=1;exitX=1;exitY=0.5;exitDx=0;exitDy=0;entryX=0;entryY=0.5;entryDx=0;entryDy=0;" edge="1" parent="1" source="RaSThRchthCUQDR3iEfn-11" target="RaSThRchthCUQDR3iEfn-10">
          <mxGeometry relative="1" as="geometry" />
        </mxCell>
        <mxCell id="RaSThRchthCUQDR3iEfn-11" value="CKT.&lt;br&gt;PROT.&lt;br&gt;ESD&lt;br&gt;CC" style="rounded=0;whiteSpace=wrap;html=1;" vertex="1" parent="1">
          <mxGeometry x="420" y="240" width="80" height="80" as="geometry" />
        </mxCell>
        <mxCell id="RaSThRchthCUQDR3iEfn-17" style="edgeStyle=orthogonalEdgeStyle;rounded=0;orthogonalLoop=1;jettySize=auto;html=1;exitX=1;exitY=0.5;exitDx=0;exitDy=0;" edge="1" parent="1" source="RaSThRchthCUQDR3iEfn-14" target="RaSThRchthCUQDR3iEfn-2">
          <mxGeometry relative="1" as="geometry" />
        </mxCell>
        <mxCell id="RaSThRchthCUQDR3iEfn-14" value="PWR&lt;br&gt;SEL&lt;br&gt;(TTL)" style="rounded=0;whiteSpace=wrap;html=1;" vertex="1" parent="1">
          <mxGeometry x="660" y="300" width="80" height="80" as="geometry" />
        </mxCell>
        <mxCell id="RaSThRchthCUQDR3iEfn-21" style="edgeStyle=orthogonalEdgeStyle;rounded=0;orthogonalLoop=1;jettySize=auto;html=1;exitX=0.5;exitY=0;exitDx=0;exitDy=0;exitPerimeter=0;endArrow=oval;endFill=1;" edge="1" parent="1" source="RaSThRchthCUQDR3iEfn-19">
          <mxGeometry relative="1" as="geometry">
            <mxPoint x="760" y="340" as="targetPoint" />
          </mxGeometry>
        </mxCell>
        <mxCell id="RaSThRchthCUQDR3iEfn-19" value="&lt;font style=&quot;font-size: 12px;&quot;&gt;TTL&lt;/font&gt;" style="verticalLabelPosition=top;verticalAlign=bottom;shape=mxgraph.electrical.signal_sources.vdd;shadow=0;dashed=0;align=center;strokeWidth=1;fontSize=24;html=1;flipV=1;spacingTop=0;" vertex="1" parent="1">
          <mxGeometry x="750" y="280" width="20" height="20" as="geometry" />
        </mxCell>
        <mxCell id="RaSThRchthCUQDR3iEfn-24" style="edgeStyle=orthogonalEdgeStyle;rounded=0;orthogonalLoop=1;jettySize=auto;html=1;exitX=0.5;exitY=0;exitDx=0;exitDy=0;exitPerimeter=0;endArrow=oval;endFill=1;" edge="1" parent="1" source="RaSThRchthCUQDR3iEfn-22">
          <mxGeometry relative="1" as="geometry">
            <mxPoint x="998.4171428571428" y="340" as="targetPoint" />
          </mxGeometry>
        </mxCell>
        <mxCell id="RaSThRchthCUQDR3iEfn-22" value="&lt;font style=&quot;font-size: 12px;&quot;&gt;+3V3&lt;/font&gt;" style="verticalLabelPosition=top;verticalAlign=bottom;shape=mxgraph.electrical.signal_sources.vdd;shadow=0;dashed=0;align=center;strokeWidth=1;fontSize=24;html=1;flipV=1;spacingTop=0;" vertex="1" parent="1">
          <mxGeometry x="988.56" y="280" width="20" height="20" as="geometry" />
        </mxCell>
        <mxCell id="RaSThRchthCUQDR3iEfn-25" value="CKT.&lt;br&gt;PROT.&lt;br&gt;POLARIDAD&lt;br&gt;CC" style="rounded=0;whiteSpace=wrap;html=1;" vertex="1" parent="1">
          <mxGeometry x="420" y="360" width="80" height="80" as="geometry" />
        </mxCell>
        <mxCell id="RaSThRchthCUQDR3iEfn-27" value="FUENTE DE ALIMENTACIÃN" style="text;html=1;align=center;verticalAlign=middle;resizable=0;points=[];autosize=1;strokeColor=none;fillColor=none;fontStyle=1;fontSize=14;" vertex="1" parent="1">
          <mxGeometry x="380" y="200" width="205" height="35" as="geometry" />
        </mxCell>
        <mxCell id="RaSThRchthCUQDR3iEfn-39" style="edgeStyle=orthogonalEdgeStyle;rounded=0;orthogonalLoop=1;jettySize=auto;html=1;exitX=1;exitY=0.5;exitDx=0;exitDy=0;" edge="1" parent="1" source="RaSThRchthCUQDR3iEfn-38" target="RaSThRchthCUQDR3iEfn-11">
          <mxGeometry relative="1" as="geometry" />
        </mxCell>
        <mxCell id="RaSThRchthCUQDR3iEfn-38" value="FUENTE&lt;br&gt;EXT.&lt;br&gt;+5V" style="shape=process;whiteSpace=wrap;html=1;backgroundOutline=1;" vertex="1" parent="1">
          <mxGeometry x="240" y="240" width="80" height="80" as="geometry" />
        </mxCell>
        <mxCell id="RaSThRchthCUQDR3iEfn-41" style="edgeStyle=orthogonalEdgeStyle;rounded=0;orthogonalLoop=1;jettySize=auto;html=1;exitX=1;exitY=0.5;exitDx=0;exitDy=0;entryX=0;entryY=0.5;entryDx=0;entryDy=0;" edge="1" parent="1" source="RaSThRchthCUQDR3iEfn-40" target="RaSThRchthCUQDR3iEfn-25">
          <mxGeometry relative="1" as="geometry" />
        </mxCell>
        <mxCell id="RaSThRchthCUQDR3iEfn-40" value="FUENTE&lt;br&gt;EXT.&lt;br&gt;+9V" style="shape=process;whiteSpace=wrap;html=1;backgroundOutline=1;" vertex="1" parent="1">
          <mxGeometry x="240" y="360" width="80" height="80" as="geometry" />
        </mxCell>
        <mxCell id="RaSThRchthCUQDR3iEfn-53" style="edgeStyle=orthogonalEdgeStyle;rounded=0;orthogonalLoop=1;jettySize=auto;html=1;exitX=0.5;exitY=0;exitDx=0;exitDy=0;exitPerimeter=0;entryX=1;entryY=0.5;entryDx=0;entryDy=0;endArrow=none;startFill=0;" edge="1" parent="1" source="RaSThRchthCUQDR3iEfn-54" target="RaSThRchthCUQDR3iEfn-57">
          <mxGeometry relative="1" as="geometry">
            <Array as="points">
              <mxPoint x="1705" y="600" />
            </Array>
          </mxGeometry>
        </mxCell>
        <mxCell id="RaSThRchthCUQDR3iEfn-54" value="&lt;font style=&quot;font-size: 12px;&quot;&gt;TTL&lt;/font&gt;" style="verticalLabelPosition=top;verticalAlign=bottom;shape=mxgraph.electrical.signal_sources.vdd;shadow=0;dashed=0;align=center;strokeWidth=1;fontSize=24;html=1;flipV=1;spacingTop=0;" vertex="1" parent="1">
          <mxGeometry x="1695" y="540" width="20" height="15" as="geometry" />
        </mxCell>
        <mxCell id="RaSThRchthCUQDR3iEfn-55" style="edgeStyle=orthogonalEdgeStyle;rounded=0;orthogonalLoop=1;jettySize=auto;html=1;exitX=0.5;exitY=0;exitDx=0;exitDy=0;exitPerimeter=0;entryX=0.5;entryY=1;entryDx=0;entryDy=0;endArrow=none;startFill=0;" edge="1" parent="1" source="RaSThRchthCUQDR3iEfn-56" target="RaSThRchthCUQDR3iEfn-58">
          <mxGeometry relative="1" as="geometry">
            <Array as="points">
              <mxPoint x="1670" y="600" />
              <mxPoint x="1640" y="600" />
              <mxPoint x="1640" y="600" />
            </Array>
          </mxGeometry>
        </mxCell>
        <mxCell id="RaSThRchthCUQDR3iEfn-56" value="&lt;font style=&quot;font-size: 12px;&quot;&gt;+3V3&lt;/font&gt;" style="verticalLabelPosition=top;verticalAlign=bottom;shape=mxgraph.electrical.signal_sources.vdd;shadow=0;dashed=0;align=center;strokeWidth=1;fontSize=24;html=1;flipV=1;spacingTop=0;" vertex="1" parent="1">
          <mxGeometry x="1660" y="540" width="20" height="20" as="geometry" />
        </mxCell>
        <mxCell id="RaSThRchthCUQDR3iEfn-57" value="" style="triangle;whiteSpace=wrap;html=1;" vertex="1" parent="1">
          <mxGeometry x="1690" y="585" width="30" height="30" as="geometry" />
        </mxCell>
        <mxCell id="RaSThRchthCUQDR3iEfn-58" value="" style="shape=trapezoid;perimeter=trapezoidPerimeter;whiteSpace=wrap;html=1;fixedSize=1;rotation=90;size=10.969999999999914;" vertex="1" parent="1">
          <mxGeometry x="1640" y="589.8" width="58.56" height="20.41" as="geometry" />
        </mxCell>
        <mxCell id="RaSThRchthCUQDR3iEfn-59" value="" style="endArrow=none;dashed=1;html=1;rounded=0;strokeWidth=2;" edge="1" parent="1">
          <mxGeometry width="50" height="50" relative="1" as="geometry">
            <mxPoint x="1685" y="635" as="sourcePoint" />
            <mxPoint x="1685" y="565" as="targetPoint" />
          </mxGeometry>
        </mxCell>
        <mxCell id="RaSThRchthCUQDR3iEfn-60" value="LEVEL&amp;nbsp; TRANS.&lt;br&gt;AISLADO" style="text;html=1;align=center;verticalAlign=middle;resizable=0;points=[];autosize=1;strokeColor=none;fillColor=none;" vertex="1" parent="1">
          <mxGeometry x="1630" y="635" width="110" height="45" as="geometry" />
        </mxCell>
        <mxCell id="RaSThRchthCUQDR3iEfn-63" style="edgeStyle=orthogonalEdgeStyle;rounded=0;orthogonalLoop=1;jettySize=auto;html=1;exitX=0.5;exitY=0;exitDx=0;exitDy=0;exitPerimeter=0;entryX=1;entryY=0.5;entryDx=0;entryDy=0;endArrow=none;startFill=0;" edge="1" parent="1" source="RaSThRchthCUQDR3iEfn-64" target="RaSThRchthCUQDR3iEfn-67">
          <mxGeometry relative="1" as="geometry">
            <Array as="points">
              <mxPoint x="1705" y="820" />
            </Array>
          </mxGeometry>
        </mxCell>
        <mxCell id="RaSThRchthCUQDR3iEfn-64" value="&lt;font style=&quot;font-size: 12px;&quot;&gt;TTL&lt;/font&gt;" style="verticalLabelPosition=top;verticalAlign=bottom;shape=mxgraph.electrical.signal_sources.vdd;shadow=0;dashed=0;align=center;strokeWidth=1;fontSize=24;html=1;flipV=1;spacingTop=0;" vertex="1" parent="1">
          <mxGeometry x="1695" y="760" width="20" height="15" as="geometry" />
        </mxCell>
        <mxCell id="RaSThRchthCUQDR3iEfn-65" style="edgeStyle=orthogonalEdgeStyle;rounded=0;orthogonalLoop=1;jettySize=auto;html=1;exitX=0.5;exitY=0;exitDx=0;exitDy=0;exitPerimeter=0;entryX=0.5;entryY=1;entryDx=0;entryDy=0;endArrow=none;startFill=0;" edge="1" parent="1" source="RaSThRchthCUQDR3iEfn-66" target="RaSThRchthCUQDR3iEfn-68">
          <mxGeometry relative="1" as="geometry">
            <Array as="points">
              <mxPoint x="1670" y="820" />
              <mxPoint x="1640" y="820" />
              <mxPoint x="1640" y="820" />
            </Array>
          </mxGeometry>
        </mxCell>
        <mxCell id="RaSThRchthCUQDR3iEfn-66" value="&lt;font style=&quot;font-size: 12px;&quot;&gt;+3V3&lt;/font&gt;" style="verticalLabelPosition=top;verticalAlign=bottom;shape=mxgraph.electrical.signal_sources.vdd;shadow=0;dashed=0;align=center;strokeWidth=1;fontSize=24;html=1;flipV=1;spacingTop=0;" vertex="1" parent="1">
          <mxGeometry x="1660" y="760" width="20" height="20" as="geometry" />
        </mxCell>
        <mxCell id="RaSThRchthCUQDR3iEfn-67" value="" style="triangle;whiteSpace=wrap;html=1;" vertex="1" parent="1">
          <mxGeometry x="1690" y="805" width="30" height="30" as="geometry" />
        </mxCell>
        <mxCell id="RaSThRchthCUQDR3iEfn-68" value="" style="shape=trapezoid;perimeter=trapezoidPerimeter;whiteSpace=wrap;html=1;fixedSize=1;rotation=90;size=10.969999999999914;" vertex="1" parent="1">
          <mxGeometry x="1640" y="809.8" width="58.56" height="20.41" as="geometry" />
        </mxCell>
        <mxCell id="RaSThRchthCUQDR3iEfn-69" value="" style="endArrow=none;dashed=1;html=1;rounded=0;strokeWidth=2;" edge="1" parent="1">
          <mxGeometry width="50" height="50" relative="1" as="geometry">
            <mxPoint x="1685" y="855" as="sourcePoint" />
            <mxPoint x="1685" y="785" as="targetPoint" />
          </mxGeometry>
        </mxCell>
        <mxCell id="RaSThRchthCUQDR3iEfn-70" value="LEVEL&amp;nbsp; TRANS.&lt;br&gt;AISLADO" style="text;html=1;align=center;verticalAlign=middle;resizable=0;points=[];autosize=1;strokeColor=none;fillColor=none;" vertex="1" parent="1">
          <mxGeometry x="1630" y="855" width="110" height="45" as="geometry" />
        </mxCell>
        <mxCell id="RaSThRchthCUQDR3iEfn-71" style="edgeStyle=orthogonalEdgeStyle;rounded=0;orthogonalLoop=1;jettySize=auto;html=1;exitX=0.5;exitY=0;exitDx=0;exitDy=0;exitPerimeter=0;entryX=1;entryY=0.5;entryDx=0;entryDy=0;endArrow=none;startFill=0;" edge="1" parent="1" source="RaSThRchthCUQDR3iEfn-72" target="RaSThRchthCUQDR3iEfn-75">
          <mxGeometry relative="1" as="geometry">
            <Array as="points">
              <mxPoint x="1705" y="1040" />
            </Array>
          </mxGeometry>
        </mxCell>
        <mxCell id="RaSThRchthCUQDR3iEfn-72" value="&lt;font style=&quot;font-size: 12px;&quot;&gt;TTL&lt;/font&gt;" style="verticalLabelPosition=top;verticalAlign=bottom;shape=mxgraph.electrical.signal_sources.vdd;shadow=0;dashed=0;align=center;strokeWidth=1;fontSize=24;html=1;flipV=1;spacingTop=0;" vertex="1" parent="1">
          <mxGeometry x="1695" y="980" width="20" height="15" as="geometry" />
        </mxCell>
        <mxCell id="RaSThRchthCUQDR3iEfn-73" style="edgeStyle=orthogonalEdgeStyle;rounded=0;orthogonalLoop=1;jettySize=auto;html=1;exitX=0.5;exitY=0;exitDx=0;exitDy=0;exitPerimeter=0;entryX=0.5;entryY=1;entryDx=0;entryDy=0;endArrow=none;startFill=0;" edge="1" parent="1" source="RaSThRchthCUQDR3iEfn-74" target="RaSThRchthCUQDR3iEfn-76">
          <mxGeometry relative="1" as="geometry">
            <Array as="points">
              <mxPoint x="1670" y="1040" />
              <mxPoint x="1640" y="1040" />
              <mxPoint x="1640" y="1040" />
            </Array>
          </mxGeometry>
        </mxCell>
        <mxCell id="RaSThRchthCUQDR3iEfn-74" value="&lt;font style=&quot;font-size: 12px;&quot;&gt;+3V3&lt;/font&gt;" style="verticalLabelPosition=top;verticalAlign=bottom;shape=mxgraph.electrical.signal_sources.vdd;shadow=0;dashed=0;align=center;strokeWidth=1;fontSize=24;html=1;flipV=1;spacingTop=0;" vertex="1" parent="1">
          <mxGeometry x="1660" y="980" width="20" height="20" as="geometry" />
        </mxCell>
        <mxCell id="RaSThRchthCUQDR3iEfn-75" value="" style="triangle;whiteSpace=wrap;html=1;" vertex="1" parent="1">
          <mxGeometry x="1690" y="1025" width="30" height="30" as="geometry" />
        </mxCell>
        <mxCell id="RaSThRchthCUQDR3iEfn-76" value="" style="shape=trapezoid;perimeter=trapezoidPerimeter;whiteSpace=wrap;html=1;fixedSize=1;rotation=90;size=10.969999999999914;" vertex="1" parent="1">
          <mxGeometry x="1640" y="1029.8" width="58.56" height="20.41" as="geometry" />
        </mxCell>
        <mxCell id="RaSThRchthCUQDR3iEfn-77" value="" style="endArrow=none;dashed=1;html=1;rounded=0;strokeWidth=2;" edge="1" parent="1">
          <mxGeometry width="50" height="50" relative="1" as="geometry">
            <mxPoint x="1685" y="1075" as="sourcePoint" />
            <mxPoint x="1685" y="1005" as="targetPoint" />
          </mxGeometry>
        </mxCell>
        <mxCell id="RaSThRchthCUQDR3iEfn-78" value="LEVEL&amp;nbsp; TRANS.&lt;br&gt;AISLADO" style="text;html=1;align=center;verticalAlign=middle;resizable=0;points=[];autosize=1;strokeColor=none;fillColor=none;" vertex="1" parent="1">
          <mxGeometry x="1630" y="1075" width="110" height="45" as="geometry" />
        </mxCell>
        <mxCell id="RaSThRchthCUQDR3iEfn-79" style="edgeStyle=orthogonalEdgeStyle;rounded=0;orthogonalLoop=1;jettySize=auto;html=1;exitX=0.5;exitY=0;exitDx=0;exitDy=0;exitPerimeter=0;entryX=1;entryY=0.5;entryDx=0;entryDy=0;endArrow=none;startFill=0;" edge="1" parent="1" source="RaSThRchthCUQDR3iEfn-80" target="RaSThRchthCUQDR3iEfn-83">
          <mxGeometry relative="1" as="geometry">
            <Array as="points">
              <mxPoint x="1705" y="1260" />
            </Array>
          </mxGeometry>
        </mxCell>
        <mxCell id="RaSThRchthCUQDR3iEfn-80" value="&lt;font style=&quot;font-size: 12px;&quot;&gt;TTL&lt;/font&gt;" style="verticalLabelPosition=top;verticalAlign=bottom;shape=mxgraph.electrical.signal_sources.vdd;shadow=0;dashed=0;align=center;strokeWidth=1;fontSize=24;html=1;flipV=1;spacingTop=0;" vertex="1" parent="1">
          <mxGeometry x="1695" y="1200" width="20" height="15" as="geometry" />
        </mxCell>
        <mxCell id="RaSThRchthCUQDR3iEfn-81" style="edgeStyle=orthogonalEdgeStyle;rounded=0;orthogonalLoop=1;jettySize=auto;html=1;exitX=0.5;exitY=0;exitDx=0;exitDy=0;exitPerimeter=0;entryX=0.5;entryY=1;entryDx=0;entryDy=0;endArrow=none;startFill=0;" edge="1" parent="1" source="RaSThRchthCUQDR3iEfn-82" target="RaSThRchthCUQDR3iEfn-84">
          <mxGeometry relative="1" as="geometry">
            <Array as="points">
              <mxPoint x="1670" y="1260" />
              <mxPoint x="1640" y="1260" />
              <mxPoint x="1640" y="1260" />
            </Array>
          </mxGeometry>
        </mxCell>
        <mxCell id="RaSThRchthCUQDR3iEfn-82" value="&lt;font style=&quot;font-size: 12px;&quot;&gt;+3V3&lt;/font&gt;" style="verticalLabelPosition=top;verticalAlign=bottom;shape=mxgraph.electrical.signal_sources.vdd;shadow=0;dashed=0;align=center;strokeWidth=1;fontSize=24;html=1;flipV=1;spacingTop=0;" vertex="1" parent="1">
          <mxGeometry x="1660" y="1200" width="20" height="20" as="geometry" />
        </mxCell>
        <mxCell id="RaSThRchthCUQDR3iEfn-83" value="" style="triangle;whiteSpace=wrap;html=1;" vertex="1" parent="1">
          <mxGeometry x="1690" y="1245" width="30" height="30" as="geometry" />
        </mxCell>
        <mxCell id="RaSThRchthCUQDR3iEfn-84" value="" style="shape=trapezoid;perimeter=trapezoidPerimeter;whiteSpace=wrap;html=1;fixedSize=1;rotation=90;size=10.969999999999914;" vertex="1" parent="1">
          <mxGeometry x="1640" y="1249.8" width="58.56" height="20.41" as="geometry" />
        </mxCell>
        <mxCell id="RaSThRchthCUQDR3iEfn-85" value="" style="endArrow=none;dashed=1;html=1;rounded=0;strokeWidth=2;" edge="1" parent="1">
          <mxGeometry width="50" height="50" relative="1" as="geometry">
            <mxPoint x="1685" y="1295" as="sourcePoint" />
            <mxPoint x="1685" y="1225" as="targetPoint" />
          </mxGeometry>
        </mxCell>
        <mxCell id="RaSThRchthCUQDR3iEfn-86" value="LEVEL&amp;nbsp; TRANS.&lt;br&gt;AISLADO" style="text;html=1;align=center;verticalAlign=middle;resizable=0;points=[];autosize=1;strokeColor=none;fillColor=none;" vertex="1" parent="1">
          <mxGeometry x="1630" y="1295" width="110" height="45" as="geometry" />
        </mxCell>
        <mxCell id="RaSThRchthCUQDR3iEfn-87" style="edgeStyle=orthogonalEdgeStyle;rounded=0;orthogonalLoop=1;jettySize=auto;html=1;exitX=0.5;exitY=0;exitDx=0;exitDy=0;exitPerimeter=0;entryX=1;entryY=0.5;entryDx=0;entryDy=0;endArrow=none;startFill=0;" edge="1" parent="1" source="RaSThRchthCUQDR3iEfn-88" target="RaSThRchthCUQDR3iEfn-91">
          <mxGeometry relative="1" as="geometry">
            <Array as="points">
              <mxPoint x="1705" y="1480" />
            </Array>
          </mxGeometry>
        </mxCell>
        <mxCell id="RaSThRchthCUQDR3iEfn-88" value="&lt;font style=&quot;font-size: 12px;&quot;&gt;TTL&lt;/font&gt;" style="verticalLabelPosition=top;verticalAlign=bottom;shape=mxgraph.electrical.signal_sources.vdd;shadow=0;dashed=0;align=center;strokeWidth=1;fontSize=24;html=1;flipV=1;spacingTop=0;" vertex="1" parent="1">
          <mxGeometry x="1695" y="1420" width="20" height="15" as="geometry" />
        </mxCell>
        <mxCell id="RaSThRchthCUQDR3iEfn-89" style="edgeStyle=orthogonalEdgeStyle;rounded=0;orthogonalLoop=1;jettySize=auto;html=1;exitX=0.5;exitY=0;exitDx=0;exitDy=0;exitPerimeter=0;entryX=0.5;entryY=1;entryDx=0;entryDy=0;endArrow=none;startFill=0;" edge="1" parent="1" source="RaSThRchthCUQDR3iEfn-90" target="RaSThRchthCUQDR3iEfn-92">
          <mxGeometry relative="1" as="geometry">
            <Array as="points">
              <mxPoint x="1670" y="1480" />
              <mxPoint x="1640" y="1480" />
              <mxPoint x="1640" y="1480" />
            </Array>
          </mxGeometry>
        </mxCell>
        <mxCell id="RaSThRchthCUQDR3iEfn-90" value="&lt;font style=&quot;font-size: 12px;&quot;&gt;+3V3&lt;/font&gt;" style="verticalLabelPosition=top;verticalAlign=bottom;shape=mxgraph.electrical.signal_sources.vdd;shadow=0;dashed=0;align=center;strokeWidth=1;fontSize=24;html=1;flipV=1;spacingTop=0;" vertex="1" parent="1">
          <mxGeometry x="1660" y="1420" width="20" height="20" as="geometry" />
        </mxCell>
        <mxCell id="RaSThRchthCUQDR3iEfn-91" value="" style="triangle;whiteSpace=wrap;html=1;" vertex="1" parent="1">
          <mxGeometry x="1690" y="1465" width="30" height="30" as="geometry" />
        </mxCell>
        <mxCell id="RaSThRchthCUQDR3iEfn-92" value="" style="shape=trapezoid;perimeter=trapezoidPerimeter;whiteSpace=wrap;html=1;fixedSize=1;rotation=90;size=10.969999999999914;" vertex="1" parent="1">
          <mxGeometry x="1640" y="1469.8" width="58.56" height="20.41" as="geometry" />
        </mxCell>
        <mxCell id="RaSThRchthCUQDR3iEfn-93" value="" style="endArrow=none;dashed=1;html=1;rounded=0;strokeWidth=2;" edge="1" parent="1">
          <mxGeometry width="50" height="50" relative="1" as="geometry">
            <mxPoint x="1685" y="1515" as="sourcePoint" />
            <mxPoint x="1685" y="1445" as="targetPoint" />
          </mxGeometry>
        </mxCell>
        <mxCell id="RaSThRchthCUQDR3iEfn-94" value="LEVEL&amp;nbsp; TRANS.&lt;br&gt;AISLADO" style="text;html=1;align=center;verticalAlign=middle;resizable=0;points=[];autosize=1;strokeColor=none;fillColor=none;" vertex="1" parent="1">
          <mxGeometry x="1630" y="1515" width="110" height="45" as="geometry" />
        </mxCell>
        <mxCell id="qaGOUiasaQDMikoR0vgw-1" value="" style="rounded=0;whiteSpace=wrap;html=1;dashed=1;fillColor=none;" vertex="1" parent="1">
          <mxGeometry x="379" y="1600" width="660" height="240" as="geometry" />
        </mxCell>
        <mxCell id="qaGOUiasaQDMikoR0vgw-2" style="edgeStyle=orthogonalEdgeStyle;rounded=0;orthogonalLoop=1;jettySize=auto;html=1;exitX=1;exitY=0.5;exitDx=0;exitDy=0;entryX=0;entryY=0.5;entryDx=0;entryDy=0;" edge="1" parent="1" source="qaGOUiasaQDMikoR0vgw-9">
          <mxGeometry relative="1" as="geometry">
            <mxPoint x="739" y="1700" as="targetPoint" />
          </mxGeometry>
        </mxCell>
        <mxCell id="qaGOUiasaQDMikoR0vgw-3" style="edgeStyle=orthogonalEdgeStyle;rounded=0;orthogonalLoop=1;jettySize=auto;html=1;exitX=1;exitY=0.5;exitDx=0;exitDy=0;entryX=0;entryY=0.5;entryDx=0;entryDy=0;" edge="1" parent="1" source="qaGOUiasaQDMikoR0vgw-4" target="qaGOUiasaQDMikoR0vgw-9">
          <mxGeometry relative="1" as="geometry" />
        </mxCell>
        <mxCell id="qaGOUiasaQDMikoR0vgw-4" value="BMP280" style="rounded=0;whiteSpace=wrap;html=1;" vertex="1" parent="1">
          <mxGeometry x="499" y="1660" width="80" height="80" as="geometry" />
        </mxCell>
        <mxCell id="qaGOUiasaQDMikoR0vgw-8" value="SENSOR DE PRESIÃN BMP280" style="text;html=1;align=center;verticalAlign=middle;resizable=0;points=[];autosize=1;strokeColor=none;fillColor=none;fontStyle=1;fontSize=14;" vertex="1" parent="1">
          <mxGeometry x="379" y="1600" width="230" height="35" as="geometry" />
        </mxCell>
        <mxCell id="qaGOUiasaQDMikoR0vgw-9" value="CKT.&lt;br&gt;PROT.&lt;br&gt;POLARIDAD" style="rounded=0;whiteSpace=wrap;html=1;" vertex="1" parent="1">
          <mxGeometry x="619" y="1660" width="80" height="80" as="geometry" />
        </mxCell>
        <mxCell id="qaGOUiasaQDMikoR0vgw-10" style="edgeStyle=orthogonalEdgeStyle;rounded=0;orthogonalLoop=1;jettySize=auto;html=1;exitX=1;exitY=0.5;exitDx=0;exitDy=0;entryX=0.5;entryY=1;entryDx=0;entryDy=0;" edge="1" parent="1" source="qaGOUiasaQDMikoR0vgw-11" target="qaGOUiasaQDMikoR0vgw-17">
          <mxGeometry relative="1" as="geometry">
            <mxPoint x="879" y="1700" as="targetPoint" />
          </mxGeometry>
        </mxCell>
        <mxCell id="qaGOUiasaQDMikoR0vgw-11" value="&lt;b&gt;&lt;i&gt;&amp;nbsp; TTL&lt;/i&gt;&lt;/b&gt;" style="triangle;whiteSpace=wrap;html=1;align=left;" vertex="1" parent="1">
          <mxGeometry x="739" y="1670" width="60" height="60" as="geometry" />
        </mxCell>
        <mxCell id="qaGOUiasaQDMikoR0vgw-12" style="edgeStyle=orthogonalEdgeStyle;rounded=0;orthogonalLoop=1;jettySize=auto;html=1;exitX=0.5;exitY=0;exitDx=0;exitDy=0;exitPerimeter=0;entryX=1;entryY=0.5;entryDx=0;entryDy=0;endArrow=none;startFill=0;" edge="1" parent="1" source="qaGOUiasaQDMikoR0vgw-13" target="qaGOUiasaQDMikoR0vgw-16">
          <mxGeometry relative="1" as="geometry">
            <Array as="points">
              <mxPoint x="944" y="1700" />
            </Array>
          </mxGeometry>
        </mxCell>
        <mxCell id="qaGOUiasaQDMikoR0vgw-13" value="&lt;font style=&quot;font-size: 12px;&quot;&gt;+3V3&lt;/font&gt;" style="verticalLabelPosition=top;verticalAlign=bottom;shape=mxgraph.electrical.signal_sources.vdd;shadow=0;dashed=0;align=center;strokeWidth=1;fontSize=24;html=1;flipV=1;spacingTop=0;" vertex="1" parent="1">
          <mxGeometry x="934" y="1640" width="20" height="15" as="geometry" />
        </mxCell>
        <mxCell id="qaGOUiasaQDMikoR0vgw-14" style="edgeStyle=orthogonalEdgeStyle;rounded=0;orthogonalLoop=1;jettySize=auto;html=1;exitX=0.5;exitY=0;exitDx=0;exitDy=0;exitPerimeter=0;entryX=0.5;entryY=1;entryDx=0;entryDy=0;endArrow=none;startFill=0;" edge="1" parent="1" source="qaGOUiasaQDMikoR0vgw-15" target="qaGOUiasaQDMikoR0vgw-17">
          <mxGeometry relative="1" as="geometry">
            <Array as="points">
              <mxPoint x="909" y="1700" />
              <mxPoint x="879" y="1700" />
              <mxPoint x="879" y="1700" />
            </Array>
          </mxGeometry>
        </mxCell>
        <mxCell id="qaGOUiasaQDMikoR0vgw-15" value="&lt;font style=&quot;font-size: 12px;&quot;&gt;TTL&lt;/font&gt;" style="verticalLabelPosition=top;verticalAlign=bottom;shape=mxgraph.electrical.signal_sources.vdd;shadow=0;dashed=0;align=center;strokeWidth=1;fontSize=24;html=1;flipV=1;spacingTop=0;" vertex="1" parent="1">
          <mxGeometry x="899" y="1640" width="20" height="20" as="geometry" />
        </mxCell>
        <mxCell id="qaGOUiasaQDMikoR0vgw-16" value="" style="triangle;whiteSpace=wrap;html=1;" vertex="1" parent="1">
          <mxGeometry x="929" y="1685" width="30" height="30" as="geometry" />
        </mxCell>
        <mxCell id="qaGOUiasaQDMikoR0vgw-17" value="" style="shape=trapezoid;perimeter=trapezoidPerimeter;whiteSpace=wrap;html=1;fixedSize=1;rotation=90;size=10.969999999999914;" vertex="1" parent="1">
          <mxGeometry x="879" y="1689.8" width="58.56" height="20.41" as="geometry" />
        </mxCell>
        <mxCell id="qaGOUiasaQDMikoR0vgw-18" value="" style="endArrow=none;dashed=1;html=1;rounded=0;strokeWidth=2;" edge="1" parent="1">
          <mxGeometry width="50" height="50" relative="1" as="geometry">
            <mxPoint x="924" y="1735" as="sourcePoint" />
            <mxPoint x="924" y="1665" as="targetPoint" />
          </mxGeometry>
        </mxCell>
        <mxCell id="qaGOUiasaQDMikoR0vgw-19" value="BUFFER&lt;br&gt;TTL" style="text;html=1;align=center;verticalAlign=middle;resizable=0;points=[];autosize=1;strokeColor=none;fillColor=none;" vertex="1" parent="1">
          <mxGeometry x="728.28" y="1627.5" width="70" height="45" as="geometry" />
        </mxCell>
        <mxCell id="qaGOUiasaQDMikoR0vgw-20" value="LEVEL&amp;nbsp; TRANS.&lt;br&gt;AISLADO" style="text;html=1;align=center;verticalAlign=middle;resizable=0;points=[];autosize=1;strokeColor=none;fillColor=none;" vertex="1" parent="1">
          <mxGeometry x="862.56" y="1735" width="110" height="45" as="geometry" />
        </mxCell>
        <mxCell id="qaGOUiasaQDMikoR0vgw-21" style="edgeStyle=orthogonalEdgeStyle;rounded=0;orthogonalLoop=1;jettySize=auto;html=1;exitX=1;exitY=0.5;exitDx=0;exitDy=0;exitPerimeter=0;entryX=-0.001;entryY=0.088;entryDx=0;entryDy=0;entryPerimeter=0;" edge="1" parent="1" source="3lKRfwnc0ouoPAwV5v7Q-12" target="3lKRfwnc0ouoPAwV5v7Q-200">
          <mxGeometry relative="1" as="geometry" />
        </mxCell>
        <mxCell id="qaGOUiasaQDMikoR0vgw-23" style="edgeStyle=orthogonalEdgeStyle;rounded=0;orthogonalLoop=1;jettySize=auto;html=1;exitX=1;exitY=0.5;exitDx=0;exitDy=0;entryX=0.008;entryY=0.411;entryDx=0;entryDy=0;entryPerimeter=0;" edge="1" parent="1" source="1Z2X5GZ7vUzWExn99gd6-47" target="3lKRfwnc0ouoPAwV5v7Q-200">
          <mxGeometry relative="1" as="geometry" />
        </mxCell>
        <mxCell id="qaGOUiasaQDMikoR0vgw-24" style="edgeStyle=orthogonalEdgeStyle;rounded=0;orthogonalLoop=1;jettySize=auto;html=1;exitX=1;exitY=0.5;exitDx=0;exitDy=0;entryX=0.008;entryY=0.735;entryDx=0;entryDy=0;entryPerimeter=0;" edge="1" parent="1" source="1Z2X5GZ7vUzWExn99gd6-25" target="3lKRfwnc0ouoPAwV5v7Q-200">
          <mxGeometry relative="1" as="geometry" />
        </mxCell>
        <mxCell id="qaGOUiasaQDMikoR0vgw-26" style="edgeStyle=orthogonalEdgeStyle;rounded=0;orthogonalLoop=1;jettySize=auto;html=1;exitX=1;exitY=0.5;exitDx=0;exitDy=0;entryX=0.002;entryY=0.912;entryDx=0;entryDy=0;entryPerimeter=0;" edge="1" parent="1" source="qaGOUiasaQDMikoR0vgw-16">
          <mxGeometry relative="1" as="geometry">
            <mxPoint x="1119.56" y="1700.3199999999997" as="targetPoint" />
          </mxGeometry>
        </mxCell>
      </root>
    </mxGraphModel>
  </diagram>
</mxfile>
